<?xml version="1.0" encoding="UTF-8"?>
<svg enable-background="new 0 0 634.17 498.904" viewBox="0 0 634.17 498.904" xmlns="http://www.w3.org/2000/svg">
 <path d="m182.496,1.689c1.691.28 3.677.266 5.069.845 .054.757-.517.891-.423,1.689-2.282-.796-3.842-1.096-4.646-2.534z" fill-rule="evenodd"/>
 <path d="m169.4,16.897c-.736,1.94-3.696,1.655-4.225,3.802 .705,1.214 2.033-.462 2.535-.845 1.523,1.964-1.813,2.678-3.379,2.957-2.673,1.271-.593,7.293-3.802,8.027-.398-3.497.825-5.371 1.69-7.604-.08-.342-.424-.421-.422-.845-2.95-.272-7.779,4.661-9.294.422 2.252.281 3.616-.327 4.647-1.267-.562-1.814-1.887-.115-2.957,0v-1.267c-1.123-.238-2.151,1.737-2.957.422 .215-1.333 1.929-1.169 2.957-1.69 1.259-.605 3.109-2.281 4.647-1.267-.579,2.037-.775,2.125-.423,4.646 3.021-.64 2.399-4.923 5.915-5.069 .354.491.557,1.133.422,2.112 1.392-.73 3.071-3.389 4.646-2.534z" fill-rule="evenodd"/>
 <path d="m228.542,89.558c13.585-1.326 25.735,6.785 31.684,16.476 3.334,5.432 6.733,12.938 5.492,23.234-1.046,8.678-6.56,17.27-12.673,21.967-5.63,4.326-15.61,9.215-25.347,7.604-1.5-.248-3.176-1.087-5.069-1.69-1.65-.525-3.72-.672-5.069-1.267-.744-.329-1.544-1.561-2.535-2.112-3.146-1.752-5.121-2.995-8.026-5.492-3.943-3.39-5.253-4.521-7.604-9.716-8.398-18.562.692-38.235 16.898-45.624 1.714-.782 3.487-2.108 5.069-2.535 2.162-.585 4.889-.622 7.18-.845zm.422,4.224c8.392-4.344 17.065,3.212 22.389,4.647-6.096-5.242-17.555-8.521-27.458-5.915-1.018.268-2.182.186-2.957.423-12.964,3.959-25.115,18.158-22.812,35.485 .878,6.606 5.375,15.081 8.871,18.165 2.544,2.244 5.451,4.477 8.026,5.915 19.551,10.916 45.39-.519 48.581-22.39 .949-6.501-.122-15.551-2.535-19.433-.785-1.263-.913-2.718-2.112-3.379 .077,3.077 2.456,6.225 2.957,10.139 .099.768-.431,2.128-.422,2.957 .069,6.842 1.015,13.533-2.957,15.63 5.135-13.417-.729-30.076-10.983-35.908-.622-.353-1.152-.937-1.69-1.267-4.665-2.867-13.451-4.659-20.7-3.38-5.646.997-9.573,3.668-12.673,6.337-1.239,1.067-2.475,3.323-4.646,2.957 4.612-6.089 10.73-10.673 21.121-10.983zm29.149,11.828c-1.63-1.334-2.695-5.463-5.069-4.646 1.466,1.497 2.86,5.297 5.069,4.646z" fill-rule="evenodd"/>
 <path d="m254.733,109.413c1.486,4.532 4.237,9.016 4.224,14.363-.01,4.288-1.271,8.102-2.535,12.251-9.019,20.098-37.973,20.378-49.003,2.957-3.729-5.89-4.851-14.356-2.957-21.544 1.02-3.87 1.373-5.266 3.38-8.026 2.516-3.461 4.992-6.795 8.871-8.872 3.818-2.042 8.757-3.911 13.94-3.802 12.07.254 17.984,5.723 24.08,12.673zm-29.993-3.38c-5.428.952-5.676-5.159-9.294-2.957-.632,2.154 3.826,2.568 2.535,6.759-1.599,1.306-1.667,2.362-3.802,2.957-2.719.758-8.041-2.578-7.604,2.535 2.407-1.043 5.291.073 6.336,1.69 1.231,6.582-4.29,6.412-8.449,7.604-.306,1.292.729,1.243.422,2.535 2.152.04 3.34-.885 5.492-.845 5.683-7.189 7.054-17.135 17.743-18.587 16.58-2.252 25.443,17.381 15.63,26.191 .352,4.436-2.641,5.526-4.224,8.026 1.194,1.763 1.969,3.945 3.802,5.069 .571-.133.807-.601 1.69-.422 .235-1.373-3.088-2.817-3.38-5.069 1.802-2.141 3.205-4.681 7.604-4.224 1.232.457 1.59,1.79 3.38,1.689 1.148-1.245 2.273-2.514 2.535-4.646-2.874-1.131-6.74-2.298-6.759-5.069-.024-3.433 5.182-4.305 9.294-3.802-.506-1.184-.465-2.915-.422-4.647-1.534-.775-2.501,2.146-4.647,2.112-1.917-1.041-2.972-2.943-3.802-5.069 .729-1.666 1.782-3.006 2.957-4.225 1.053-.214 2.549.014 2.535-1.267 .682-.573-1.448-1.907-1.689-2.957-1.823.008-1.557,2.104-3.38,2.112-3.457.218-5.462-1.015-6.336-3.38 .375-2.723 3.241-2.955 4.225-5.069-1.63-.482-2.404-1.821-4.225-2.112-1.122,5.025-8.817,6.712-10.561,1.267 1.27-1.534.037-3.248 2.535-3.802-1.188-.643-3.259-.402-4.647-.845-.603,4.317-2.112,7.854-5.494,8.448zm1.69,3.802c-1.875.575-3.21,2.806-5.492,2.957-11.401,10.049-2.674,31.229 16.475,25.347 3.114-1.898 7.337-6.571 8.449-11.406 1.216-5.291-1.421-5.865-2.957-9.293-.302-1.147 1.992.302 1.69-.845-3.447-4.405-10.345-9.157-18.165-6.76zm-16.898,28.304c.226-1.634-.754-2.062-.422-3.802h-1.267c-1.011,1.423.155,3.59 1.689,3.802zm19.01,11.828c.77.646 3.455.646 4.225,0 .399-.974.028-1.362.422-2.957-2.83-.295-3.635,1.435-4.647,2.957z" fill-rule="evenodd"/>
 <path d="m266.14 224.32c-0.251 1.537-2.065 4.904-5.069 5.069-0.061-3.44 2.502-4.257 5.069-5.069z" fill-rule="evenodd"/>
 <path d="m286.839,245.861c.682-.119.727.399 1.267.423 1.705,3.646 3.443,7.259 5.492,10.561 1.027,1.227 3.567.939 3.379,3.38-1.914,1.242-3.424-1.129-4.647-2.535-2.536-2.916-4.667-6.745-5.491-11.829z" fill-rule="evenodd"/>
 <path d="m302.892,255.578c-1.457,2.923-6.654-.026-7.182-2.112 1.993-.471 5.483.911 7.182,2.112z" fill-rule="evenodd"/>
 <path d="m271.208,254.311c3.369,1.841 6.131,4.289 9.716,5.914 1.979.273 5.058-.553 6.336.422 .028,2.713-3.498,1.786-4.647,1.69-2.442-.203-11.636-4.699-11.405-8.026z" fill-rule="evenodd"/>
 <path d="m295.288,274.588c-2.143-1.118-1.076-4.219-1.689-6.337-.635-2.19-2.021-3.644-2.958-5.069 .271-2.541-2.588-4.423-2.957-7.604 2.023-.496 2.169,1.849 2.957,3.802 1.751,4.34 8.412,10.88 4.647,15.208z" fill-rule="evenodd"/>
 <path d="m528.48 262.76c-2.028-0.159-4.078-2.486-7.604-1.689 0.841-4.291 7.525-1.215 7.604 1.689z" fill-rule="evenodd"/>
 <path d="m260.225,264.449c.376.188.755.371.845.845-.985,2.254-1.811,4.666-2.957,6.759-.064,2.611.372,5.724-1.69,6.337-.378-6.292.774-11.054 3.802-13.941z" fill-rule="evenodd"/>
 <path d="m284.3 268.25c4.124 2.935 8.377 7.934 8.026 13.94h-2.112c-0.388-3.271-1.107-6.153-2.535-8.448-1.182-1.902-4.244-3.039-3.379-5.492z" fill-rule="evenodd"/>
 <path d="m181.228,285.571c-2.205,1.073-4.23-1.296-6.336-1.69-1.824-.504-2.368,1.385-3.379.423-.713-4.77 9.117-1.662 9.715,1.267z" fill-rule="evenodd"/>
 <path d="m151.657,282.614h1.267c1.227,4.281 5.129,10.935 1.69,14.785-2.212-1.083-.261-3.007-.422-4.646-.323-3.276-2.703-6.318-2.535-10.139z" fill-rule="evenodd"/>
 <path d="m473.981,284.727h1.268c.906,1.664.153,4.799-2.112,4.646-1.16-1.572.871-2.874.844-4.646z" fill-rule="evenodd"/>
 <path d="m248.396,294.02h1.268c.842,3.713.827,7.104 2.112,10.139 1.221,2.883 4.336,5.001 3.802,8.027-5.258-1.002-6.511-10.61-7.182-18.166z" fill-rule="evenodd"/>
 <path d="m284.727,304.158c.682-.119.727.399 1.268.423-1.615,6.048-6.515,9.613-11.406,12.673-1.31.819-1.849,2.646-3.802,1.69-.052-3.167 3.263-4.161 5.069-5.492 3.363-2.477 6.287-5.843 8.871-9.294z" fill-rule="evenodd"/>
 <path d="m175.736,310.073c-1.581,4.914-12.588,1.966-16.475.845-.224-.34-.441-.686-.422-1.268 .339-.224.686-.44 1.267-.423 4.371,2.101 11.272.664 15.63.846z" fill-rule="evenodd"/>
 <path d="m294.443,316.832h1.267c-.095,3.971-.992,9.208-2.112,13.518-.747,2.876-2.02,6.375-4.225,7.604-.437-6.934 3.696-12.906 4.647-19.854-.119-.683.399-.728.423-1.268z" fill-rule="evenodd"/>
 <path d="m254.73 323.17c3.056 1.66 3.132 5.992 4.646 9.293 1.464 3.191 3.397 5.97 4.225 9.294 0.591 2.378 1.431 5.696 0 8.026-2.285-1.721-1.477-5.074-2.112-7.604-1.142-4.545-3.417-9.258-5.492-13.096 0.487-2.727-2.111-4.188-1.267-5.913z" fill-rule="evenodd"/>
 <path d="m210.799,327.815c.815,4.029-4.02,1.669-6.337,1.689-.847.008-1.527.662-2.535.845-1.876.342-4.297-.233-5.914,0-1.841.267-3.17,2.077-4.647.846 .3-3.998 5.369-2.586 8.872-2.957 3.602-.383 7.592-1.821 10.561-.423z" fill-rule="evenodd"/>
 <path d="m555.935,328.66c-.407,1.437-2.979,1.884-4.647,2.112-4.562.626-11.066-.04-14.362.423-.706-2.898 2.805-1.812 4.646-2.112 3.929-.64 8.964-.649 12.673-1.69 1.105-.12 1.817.154 1.69,1.267z" fill-rule="evenodd"/>
 <path d="m190.522,338.377c-.704,2.369-4.229,3.748-6.759,4.646-2.797.993-6.219,1.581-8.871,1.268-.612-1.598 1.161-.811.845-2.112 5.748-.167 10.007-1.822 13.096-4.647 .258.585 1.625.063 1.689.845z" fill-rule="evenodd"/>
 <path d="m596.912,424.555c-6.261,6.134-10.488,10.94-19.01,15.208-9.604,4.809-24.223,7.328-36.753,4.225-2.751-.682-6.433-2.111-9.293-3.38-1.977-.876-4.034-2.233-5.915-3.379-19.188-11.689-32.644-39.841-20.699-66.324 3.319-7.358 7.334-12.496 13.096-17.742 1.196-1.089 2.192-2.894 3.38-3.802 2.339-1.79 5.871-3.154 8.871-4.647 7.09-3.527 11.918-4.807 22.39-5.491 20.231-1.323 39.347,11.66 47.735,27.458 4.632,8.723 7.653,19.971 6.337,32.106-1.061,9.774-6.248,17.518-10.139,25.768zm-64.211-79.419c-12.383,5.593-20.739,14.201-25.77,25.769-.471,1.083-1.289,2.316-1.689,3.38-2.722,7.232-3.972,18.291-2.534,27.036 .893,5.436 3.304,10.921 5.914,15.631 2.58,4.655 5.689,8.627 9.293,12.25 14.477,14.554 39.96,19.513 60.41,8.872 10.609-5.521 17.176-13.606 22.389-23.657 1.664-3.208 3.503-7.193 4.225-10.561 2.57-11.992.152-23.845-3.379-32.528-1.037-2.551-2.425-4.55-3.803-6.759-9.254-14.844-27.1-26.136-49.848-23.657-7,.762-10.351,2.029-15.208,4.224z" fill-rule="evenodd"/>
 <path d="m548.331,342.601c12.442-1.511 25.418,2.46 33.373,7.604 .729.471 1.227,1.49 2.112,2.112 10.449,7.338 20.296,21.183 20.7,38.864 .318,13.938-6.644,27.589-13.941,35.485-7.582,8.205-16.411,12.402-28.726,14.363-13.707,2.183-24.779-.444-34.641-6.76-5.511-3.528-10.83-8.428-14.363-13.94-4.868-7.598-9.151-17.373-8.871-29.993 .195-8.776 3.48-18.415 6.76-24.079 .423-.732 1.546-1.264 2.111-2.112 .612-.917.749-2.297 1.268-2.957 7.316-9.304 19.608-16.813 34.218-18.587zm-16.053,6.337c-6.69,3.584-13.6,9.114-17.32,14.363-3.239,4.571-7.654,14.391-8.448,21.544-1.291,11.623.633,19.822 4.225,27.459 6.663,14.169 19.747,26.061 36.329,27.882 12.449,1.366 22.662-1.822 29.571-5.492 17.115-9.09 31.587-31.307 23.657-57.029-.768-2.49-1.602-5.311-2.957-8.026-2.192-4.394-7.373-9.485-10.562-12.674-.623-.623-.693-1.632-1.268-2.112-8.917-7.461-22.48-11.832-35.907-10.561-6.198.586-13.167,2.421-17.32,4.646z" fill-rule="evenodd"/>
 <path d="m528.053,416.528c-2.629-3.822-4.932-7.454-6.759-13.096-.374-1.156-.38-2.256-.845-3.38-.426-1.027-1.043-1.602-1.268-2.534-.673-2.792-.698-6.407-.422-9.294 .233-2.447.795-5.953 1.689-8.449 1.169-3.265 4.94-9.022 7.604-11.828 5.318-5.603 14.159-10.062 22.39-10.983 11.934-1.335 22.212,3.863 28.727,10.139 6.97,6.714 11.334,18.054 10.139,29.148-.301,2.787-1.026,6.948-2.112,9.716-.432,1.101-1.912,2.217-2.535,3.38-.438.817-.927,3.17-1.689,4.225-1.222,1.688-5.438,5.596-7.604,7.182-6.494,4.756-17.914,8.259-29.571,5.914-.289-.058-.315-.789-.845-.845-.328-.035-.683.596-1.268.422-1.188-.352-3.331-1.447-4.646-2.111-4.22-2.132-6.955-4.965-10.985-7.606zm4.225-49.425c-3.142,2.719-7.743,8.527-8.871,12.251-5.092,16.812.707,31.925 12.251,39.71 5.255,3.543 14.239,6.415 21.967,5.914 15.981-1.038 32.234-17.343 29.571-36.753-1.356-9.884-5.598-15.693-11.406-20.699-4.436-3.823-6.422-4.963-12.673-6.76-4.259-1.224-8.451-1.613-11.829-1.267-7.394.759-14.177,3.421-19.01,7.604z" fill-rule="evenodd"/>
 <path d="m579.591,408.925c-1.821-.412.27-2.614.423-2.958 3.115-6.964 4.688-16.271.845-25.346-2.117-5.001-5.563-7.911-8.026-11.406-6.269-3.533-12.903-6.81-20.277-6.337-5.055.324-11.007,2.457-15.208,5.492-2.482,1.793-5.944,4.787-7.604,7.182-1.356,1.955-.638,4.321-3.38,5.491-1.092-1.867.975-3.599 1.689-5.069 6.445-13.252 26.782-19.456 41.822-10.561 3.713,2.195 6.73,4.886 9.294,8.448 1.674,2.327 2.592,4.178 3.802,7.604 3.104,8.794 3.225,21.931-3.38,27.46z" fill-rule="evenodd"/>
 <path d="m75.618,386.535c-.851,2.638.454,3.173.422,5.914-2.966,1.258-3.733,4.716-8.872,3.802 .173-1.018-.771-.918-.422-2.112-1.336-.069-1.412,1.123-2.957.845-1.243-1.15-.625-4.162-2.112-5.069 .576-4.634 4.651-5.77 9.294-6.336 1.853.681 2.553,2.515 4.647,2.956zm-10.984,1.69c1.202,2.318 2.475,4.566 5.069,5.492 7.326-2.681.403-10.855-5.069-5.492z" fill-rule="evenodd"/>
 <path d="m217.56 390.34c2.743 2.08 7.01 4.771 6.337 8.871-2.083-0.464-7.789-5.835-6.337-8.871z" fill-rule="evenodd"/>
 <path d="m555.935,400.898c.016,1.705-.407,2.972-2.112,2.957-.353-2.043.533-2.846 2.112-2.957z" fill-rule="evenodd"/>
 <path d="m152.502,433.849h1.268c2.056,3.273 3.972,6.796 6.336,10.139 .68.961 1.917,1.617 2.535,2.534 .741,1.101.95,2.703 1.69,3.803 1.943,2.887 4.799,5.347 7.182,8.448 3.144,4.092 6.318,7.812 9.716,11.406 1.664,1.76 3.272,3.866 5.069,5.491 1.464,1.324 4.979,2.695 4.225,5.492-3.021-.205-4.014-3.351-5.914-5.069-.961-.869-2.387-1.232-3.38-2.112-1.298-1.15-2.321-3.325-3.802-5.069-1.34-1.578-3.447-2.755-4.647-4.225-.913-1.117-1.157-2.65-2.112-3.802-.793-.957-2.155-1.56-2.957-2.534-.861-1.048-1.259-2.73-2.112-3.803-.894-1.123-2.282-1.604-2.957-2.534-.983-1.355-1.46-3.438-2.535-5.069-2.952-4.482-6.622-7.544-7.605-13.096z" fill-rule="evenodd"/>
 <path d="m185.03,498.904h-32.106c-2.462-1.762-7.534-.914-8.871-3.802 3.349-4.818 12.222-4.112 16.897-7.604 .007-2.951 2.386-3.528 2.535-6.337-28.798-.018-69.995-.177-104.343,0-15.508.08-31.21-.399-51.115.423-2.103.086-4.42,1.218-6.337-.423-.553-1.82 2.011-.523 1.69-2.112-3.73-2.067-1.662-5.55-1.69-9.716-.019-2.786-1.173-5.551-1.267-8.026-.361-9.505.504-19.757-.423-29.148 1.061-.911 1.48-2.463 2.535-3.38 3.636.154 7.105.622 10.139.422-1.161-3.204-4.932-3.799-6.336-6.759-1.791-.375-2.991,1.109-4.225,0-1.027-1.815-.6-2.967-1.689-5.069 1.082-.748 1.223-2.438 1.689-3.802 1.812-.232 5.202,1.904 5.915-1.268-.305-1.659-5.578,1.691-6.759-.845-.524-2.215 2.417-.963 2.112-2.957-2.511-6.001-2.971-13.38-1.69-20.277-1.15-1.546-1.977-4.955 0-6.337 1.925-.534 3.965,2.142 6.759,2.112-.359-5.428 1.415-8.724 1.689-13.518-2.876-.413-4.37,4.027-7.604,4.646-1.831-1.156.64-2.084-.422-3.38-.603-1.368-1.062-2.88-1.267-4.646 4.121-7.707 15.743-7.913 19.854-15.63-1.653-.841-3.098.379-5.492,0 1.955,4.687-2.44,5.65-6.759,7.181-2.366.839-5.069,1.938-6.337,1.69-1.12-3.216-.907-6.683 1.69-8.026 2.607-.779 7.116.906 8.449-1.268-2.858-.521-6.674-.085-9.293-.845-.223-1.543 1.854-1.897.845-2.957-3.468-2.609-3.025-10.795 0-13.519 5.955.906 19.571.78 27.036-.423 1.356-.37.876,1.096 1.69,1.268 2.668-2.799 8.996-.489 13.518-1.268 2.814-.483 6.206-2.803 8.449-3.379-7.113-.112-14.056.351-21.967.422-1.547.003-.62,2.479-2.535,2.112-9.396-1.138-18.065.087-25.347.845-3.307-1.64-2.365-4.938-4.224-8.025 .583-1.812 1.159-3.63 1.689-5.492 .489-.471-2.928-1.087-1.267-2.957 3.278.102 5.631,1.128 9.293.845-.981-2.258-4.316-2.161-7.604-2.112-1.883-3.901-1.827-9.381.423-13.94-3.188-4.903-.578-10.878 0-15.631 5.007.368 10.166.741 14.785.846 4.362.099 9.226.717 12.673-1.268-1.678-1.176-3.439.07-5.492,0-2.08-.072-4.303-1.154-6.336-1.268-5.2-.289-10.34,1.077-15.208,0-3.05-3.15-2.328-8.811-1.268-11.828 .464-1.321.062-2.824 1.268-3.38 11.767.615 19.731-.224 32.95.845 .654-3.752-1.746-4.449-2.112-7.182-2.746-1.9-9.014-.279-9.716-4.224 3.463.537 7.609,1.746 11.406,3.379 3.509,1.51 7.892,2.957 9.294,6.337-1.946.384-3.891-3.22-5.069-.845 .658,3.986 5.53,2.722 8.871,2.534 3.799-.213 7.818-.314 10.984,0 1.216,3.284.226,6.558.845,8.872 2.586-.497 4.557-3.263 6.336-5.492 4.481-5.615 5.747-9.159 6.759-18.165 .475-4.225 1.267-8.777 1.267-12.673 0-9.47-1.472-15.676-2.957-21.544-19.03-.296-41.585.247-57.03.422-2.277.026-4.721-.118-6.759,0-2.05.119-5.476,2.305-6.337-1.267 1.553-2.114 4.834-1.324 7.182-1.268 16.481.399 43.127-.612 62.944.422 .066-4.29-2.122-6.327-2.957-9.716-19.913.314-43.873-.587-60.409.423-2.251.137-5.934,1.171-6.759-1.69 2.173-1.518 5.027-.845 7.604-.845 19.554,0 40.448-.341 58.72.422-.219-4.851-3.011-7.128-3.802-11.406-17.034.339-40.155-.816-55.762,0-2.083.109-4.998,1.021-6.337-.845 .08-.673 1.378-2.217 1.69-1.268 1.303-.15-1.112-2.152.422-2.534 4.194-.568 7.346.082 13.096,0-1.162-3.418-.083-7.037 0-10.562 .337-14.21-.252-28.863 0-43.511-2.457-1.011-6.023-.243-9.293,0-3.171.235-7.581,1.552-8.026-1.69 4.135-1.666 12.163-.077 17.32-.845-.279-10.89-.543-27.056-.422-39.287-2.322-.363-5.405-.618-8.449-.423-2.381.153-5.91,2.204-6.337-1.267 3.894-2.504 10.372.191 15.208-1.267-.672-16.974-.2-37.728-.422-54.495-2.863.443-5.682.636-8.449.845-.97.073-2.995.479-4.225.422-1.427-.065-3.926.395-3.802-2.112 .561-2.884 3.945-1.013 6.336-.845 3.66.257 7.586-.048 10.139,0 1.229-7.209-1.991-20.913-.845-30.416 .215-1.787.338-5.632 2.957-4.647 1.208,2.392.107,5.197 0,8.449-.265,8.053.289,18.16 0,26.614 5.982-.55 13.816-.552 19.855,0-.325-8.375-.614-17.042-.845-24.501-.089-2.894-1.133-6.447.845-8.449 1.235-.477 3.777.869 5.069,1.69-.737,9.929-.61,19.973-.423,30.416 3.217,1.215 14.029.126 19.01.422-.919-4.55.242-11.418 0-13.519-.1-.868-.826-1.672-.845-2.534-.067-3 .453-6.871.423-10.139-.023-2.439-1.307-7.572 2.112-6.759 1.602.456.802,2.377.845,3.379 .424,9.894-1.083,17.454-.422,29.571 5.242.294 12.246-.666 18.165.422 .721-10.709-1.307-23.146-.422-34.64 .87-.424 2.143-1.507 2.112.422 1.464-.085.605-2.493 2.957-1.69 .763,5.339.422,11.775.422,18.165 0,6.419-.468,13.036.423,17.743 7.129-1.959 14.591-.081 21.967-.845-.146-6.584.198-13.155 0-19.01-.124-3.678-1.049-7.425-.845-11.406 .05-.968-.058-3.548 1.689-3.379 2.75-.317 1.245,3.136 1.268,4.224 .331,16.002-.657,26.309 0,40.555 6.912,3.227 11.697,8.581 15.63,14.786 .272-17.115-.114-39.118-.422-54.495-.026-1.312-1.883-5.044 1.267-5.069 2.55,1.785.908,4.553.845,7.181-.28,11.789-.129,25.662 0,40.555 .035,4.075.941,8.078.845,11.829-.036,1.413-.764,2.82-.845,4.224 4.13,8.958 6.238,21.384 5.914,32.528-.103,3.525.706,7.271.422,10.561-.181,2.101-.974,4.125-1.267,6.336-1.003,7.551-1.763,13.279-3.38,20.277-.363,1.574-1.108,3.202-1.267,4.647-.345,3.137.351,6.932.422,10.561 .276,13.984.055,28.673-.422,40.977 3.412.783 6.261-.068 9.293,0 .966-51.456-.771-91.789-.422-138.984 .113-15.239.581-33.495 0-48.159 2.552.195 1.851,1.037 3.379-.422 1.42-.434.658,1.314.845,2.112 2.329-.346 2.838-2.513 5.914-2.112 1.64,1.101 2.632,4.767-.422,5.069-2.602-.612.583-3.098-1.268-3.379-1.784.61-3.803.984-3.802,3.379 1.132-.297 3.547.957.422,1.268-.689,2.145 1.857-.843 3.802,0 .992,2.079-2.291,3.568-.423,3.802 4.178-.61 5.577-3.999 7.604-6.759 .446,4.588 3.634-3.822 6.337-2.112 .687,1.832-.973,3.237.845,5.069 .405-1.459 1.252-4.138 2.957-2.957-.587,1.681-3.18,4.281 0,5.069 3.212.255 1.285-4.629 4.647-4.225 1.751,2.088-2.48,3.097-.845,5.069 2.442.33 3.693-.531 5.069-1.267 1.615-2.142-.267-5.246.845-7.604 1.326.2 1.116-1.137 2.112-1.267 1.645.045.727,2.653 2.112,2.957 1.03-.848 3.788-3.351 5.069-1.267-.318,2.639-4.293,1.621-5.915,2.957 .5,8.455.749,20.256 0,28.304 12.193-.129 28.372-.056 43.934,0-.611-3.125.321-6.199.422-8.026 .289-5.204-.209-11.146 0-16.898 .061-1.67-1.125-5.41 1.69-5.492 1.798,1.795.511,4.667.422,6.759-.316,7.505-.206,15.426-.845,23.234 .43,1.738 3.609-.837 4.224,1.267-.077,1.894-4.283-.341-3.802,2.112-.343,5.993.384,16.272 0,24.079h4.225c1.446-21.011-.576-38.912-.423-58.72 1.278-1.581 2.654-3.714 5.492-2.534 1.228,9.803-.49,24.366 0,34.64 12.009-1.61 24.224.296 35.907-.845-.661-7.323-.151-17.428-.422-27.459-.075-2.767-1.314-6.59 1.268-7.604 2.125,1.688 1.267,5.274 1.267,8.026 0,9.824-.367,20.109 0,27.459 14.72-.719 29.254.167 43.512,0-.37-8.129.356-17.502 0-25.347-.18-3.965-2.11-8.676 1.267-10.983 1.502,2.224.845,5.431.845,8.449 0,9.479-.012,20.142 0,27.881 10.204.187 23.82-.409 33.795.422 .507-8.359.759-20.923.423-29.571-.086-2.223-1.49-5.236.845-6.337 2.271,1.304 1.268,5.895 1.268,8.449 0,37.458-.267,74.9.422,109.835 .274,13.884.001,32.305 0,49.003 0,8.138-.964,16.421 1.268,23.657 4.345-.584 9.442-.415 14.363-.423-.3-53.161-1.034-99.519-.845-139.828 .057-12.128.44-24.433 0-36.753-.139-3.863-2.311-10.863.845-12.25 2.421,2.852.841,6.476.845,9.716 .023,18.619.076,40.446 0,59.142-.043,10.57.841,20.576.845,30.416 .012,25.221-.413,57.412.423,89.558 2.856-.312 5.835.513 7.604,0-1.286-66.593.457-122.782-1.689-185.03-.063-1.842-.234-4.523.845-5.914 1.322-.196 1.886.367 1.69,1.69 .657-.61.833-1.701 2.534-1.268-.048,15.292-.037,23.831-.423,35.908 10.576-.971 22.942-.152 34.219-.422-.021-8.671.033-18.687 0-25.769-.013-2.5-1.281-6.797 1.689-7.604 1.986,4.12.417,9.251.422,13.94 .008,6.961.254,13.495-.422,19.433 19.943-.118 29.579-.184 46.891,0 1.076-8.383-.185-19.135-.422-27.459-.088-3.092-.935-7.913 2.534-8.026 1.674,1.568.482,3.905.423,5.914-.289,9.798.177,21.612-.423,29.571 13.064-.003 31.696-.016 48.159,0 .258-9.269-.505-22.171 0-30.838 1.231-.458 1.59-1.79 3.379-1.69-1.858,10.34-1.034,20.793-1.268,32.528 14.522-.433 30.347.859 42.667,0-.679-2.188-2.631-3.793-4.225-5.492-3.424-3.652-6.901-6.697-12.251-8.027 .436-6.233-1.197-14.053 0-20.277 3.042,2.072 5.951-1.198 9.717-1.69 6.239-.814 13.053,1.481 18.587,2.535 .236,2.315.684,5.625.846,8.872 .149,3.015-.785,6.188.422,8.026 2.261-5.439.14-10.622 1.268-16.476 1.921-.698 3.106-2.883 5.491-3.379 4.013-.835 9.662,1.455 12.674,1.69 8.35.064 16.157-1.242 23.234.845 1.668-.585 2.899-1.606 5.491-1.268 3.146,4.683 1.861,10.927 2.958,16.898 .74,4.035 3.676,7.584 2.957,11.829-.616,1.637-3.793.714-4.647,2.112v3.38c2.511,1.332 6.873-1.334 7.604,2.112-1.081,2.811-4.518-.805-6.337,1.268 .468,4.964 4.651,9.278 6.337,15.208 .93,3.274 1.337,8.458 1.689,12.673 .513,6.126.961,13.308 1.268,20.277 .401,9.142.903,19.348 0,26.614-.494,3.973-2.729,8.197-2.112,12.25-1.173,2.067-1.814,4.664-2.957,6.759-.162,1.43 1.87.665 1.267,2.535-2.49,1.843-4.101,3.254-5.914,5.914-3.501,5.135-2.112,16.362-2.112,26.614 .001,8.376-.337,16.693.423,23.234 3.275.643 5.345-1.843 8.026-.422 .233,1.757.003,3.895-.845,5.492-38.617-.736-77.326-.012-117.017-.845 1.045,5.205 3.555,10.741 8.448,11.829 3.901.867 9.062,0 13.941,0h83.644c4.919,0 10.083-.692 13.518.845-2.006,3.659-7.651,1.374-11.828,1.267-25.556-.653-58.267.534-88.713.423-2.971-.011-6.151-1.501-8.871.422-1.451,1.575 2.229.58 1.268,2.957-1.161,1.656-4.562,1.071-6.76,1.69-.979,1.191.487,2.64 0,4.646-3.521.845-3.193,5.537-5.069,8.026 3.625-1.726 6.286-4.733 9.717-6.759 5.263-3.109 12.584-5.062 21.544-3.802 2.771.39 4.938,2.463 8.026,2.958 1.986.317 4.694-.046 6.76,0 17.147.38 37.353-.529 55.34-.423 4.11.024 8.225.509 12.251.423 1.773-.038 5.005-1.805 5.914,1.267-.493,2.777-3.295,1.192-5.069,1.267-21.55.911-45.708-1.103-70.548-.422 3.428,4.709 8.583,8.374 10.983,14.786 2.451,6.548 3.717,14.712 3.379,23.234 1.502-.623 3.165.658 4.647.845 1.591.201 3.89.535 4.225-.423-1.648-1.027-3.818-1.532-4.225-3.802 .741-1.512 1.139-3.366 1.268-5.491 1.121-.574 2.087-1.884 3.379-2.535 6.902-3.476 15.389,4.728 10.983,10.983-3.079,2.355-6.302,1.076-9.293,2.535 4.137.538 7.825,3.081 9.716,5.491 1.347,1.718 2.718,2.844 3.38,4.225 1.442,3.013 1.739,7.121 2.957,10.562 .583,1.648 1.613,3.095 2.112,4.646 .628,1.958.681,3.92 1.267,5.914 1.538,5.229 3.524,10.214 5.069,15.631 1.726,6.048 3.542,10.435 5.069,15.63 3.266,11.101 6.586,21.879 9.717,32.105 3.668-.391 6.746-1.235 10.139,0 .062,3.458 1.304,5.737 1.267,9.294-1.141,2.379-3.971,3.069-7.181,3.38 1.054,5.846 2.995,10.804 3.802,16.897 1.677,1.02 1.502,3.123 2.112,4.647 .337.843 2.896.832 1.689,2.534-8.646.619-11.386-4.667-17.32-6.759-.069,3.182 3.165,5.239 5.914,6.759 1.395.771 3.142,1.598 4.647,2.112 1.881.643 4.024.527 5.491,1.689-.052,3.966.881,8.771.845,12.251-2.289,1.935-6.301,1.358-10.139,1.268-2.674-.063-9.059-1.529-9.293,2.112 4.364,2.667 17.532-2.383 19.854,2.534-.326,3.96.907,7.026-2.112,8.449-6.22-1.33-15.116-.801-22.39-.845-1.688,2.112-3.126,4.478-4.225,7.182 4.397-.361 9.098.434 13.519.422 4.155-.01 9.169-1.307 13.096,0 1.512,1.927.188,4.284 0,6.337-1.295,14.094.911,28.157-.423,40.132 .092,1.739 2.483,1.179 1.69,3.802-3.619.222-7.155.636-10.139.846-5.518.387-11.992-.334-15.208-.423-3.497-.096-6.271.517-7.604-.845-3.575,1.053-7.765.914-11.405.845-1.051-.02-1.877-.78-2.957-.845-.962-.058-2.327.789-3.38.845-1.688.09-3.171.002-4.646,0-4.687-.006-8.979-.092-12.674-.845-2.401,1.615-5.275.886-6.759.845-1.221-.033-2.309.034-3.38,0-7.291-.232-15.592-.9-22.812-.845-16.088.124-33.266-.461-50.693-.423-12.626.027-26.943-.623-39.287.423-1.406.119-2.817.796-4.225.845-4.553.157-9.24-1.031-13.94-.845-1.079.043-2.232.354-3.38.422-4.912.293-15.689.456-20.277-.845-3.51,2.087-7.192.486-10.561.423-2.961-.056-6.252.771-9.294.845-33.778.827-67.245-.062-99.696.423-1.584,1.091-2.352,2.999-3.379,4.646-1.187.785-3.016.928-3.38,2.534-.644,1.915.23,3.859-1.689,5.069-5.946.199-11.544-.345-16.476,0-1.783-.048-1.243-2.418-3.379-2.112-1.616.356-3.391.553-5.492.423-.636-.771-1.822-.994-2.535-1.689-1.165-.385-.097-3.001-2.112-2.535-1.991-1.654-4.151,1.427-5.914,0-.154-2.65.887-4.171-.422-5.914-10.985-.727-19.27-.168-29.571-.422 .626,3.142 1.285,7.382.422,9.716-5.483,3.815-13.33,5.262-20.275,7.61zm326.126-301.201c-1.034-2.061-2.785-4.123-5.069-4.647-1.649-.378-6.946-.376-10.139.422-3.896.976-5.286,2.852-7.182,5.069-2.165,2.534-3.588,4.302-2.957,8.872 1.801.171 4.352-.409 5.492.422 .403-1.849 2.121-2.385 4.225-2.535 .39.736-.015,2.267 1.267,2.112 2.181.491 2.214-1.166 2.957-2.112 2.274-.261 2.592-2.478 4.647-2.957 2.785.031 5.831-.199 8.026.422 .955-1.96-2-3.234-2.957-4.647 .334-1.461-.47-1.783-.845-2.535 1.257.036 1.754,3.003 2.535,2.114zm-357.809-182.073c-.567-.278-.787-.903-.845-1.69-2.545.834-4.64,2.12-8.449,1.69-.95,6.372-.167,14.478-.422,21.544 11.122-.943 22.554-.709 32.95-.422 .927-5.857.174-11.847 0-17.32-.092-2.906.689-6.09-.422-8.449-.451,1.773-1.288,2.836-2.535,3.379-3.003,1.309-6.51-1.241-8.871,0-1.107-.583-1.454-1.925-2.957-2.112-.862,1.251-2.618,3.383-4.225,2.534 .121-2.283 4.189-2.839 2.957-5.069 .198.951-2.292,1.303-2.535.423-.072-.724 2.396-1.661.422-1.69-2.066,2.017-3.057,5.11-5.068,7.182zm419.908,8.871c4.689,2.632 7.224,7.42 10.138,11.829 6.043,3.814 8.219,11.495 11.829,17.743-.977-6.265-3.779-11.077-6.337-15.208-3.896-6.292-9.202-12.75-15.208-16.053 .095.798-.475.932-.422,1.689zm-462.997,13.096c-6.385.885-16.219.277-21.967.422v12.251c3.022-.023 4.188-3.102 7.182-4.225 4.596-1.724 9.634-.054 15.63.423-.088-3.15.376-6.853-.845-8.871zm-65.056.845c.374,17.088.827,37.755 2.112,55.34 4.505-.99 12.656-.1 16.475-.422-1.205-17.128.347-39.176-.845-54.917-3.427.121-13.196-.114-17.742-.001zm19.855.423c.922,17.384.187,36.424.422,54.495 2.116.458 6.125.197 8.871-.845 .823-6.376 1.213-12.177 2.535-16.475 .996-3.238 1.224-5.554 2.112-8.026 1.181-3.286 4.179-6.103 4.647-8.872 .499-2.957-.462-7.127-.423-10.561 .04-3.396.143-6.656 0-10.139-.423.001-.502-.342-.845-.423-4.819,1.235-12.5-.389-17.319.846zm78.996-.845c-.759,20.528-.139,38.321 0,54.495 10.061.781 24.159.591 32.951,0-.654-15.605.015-36.716-.423-54.072-8.958.029-25.086,1.231-32.528-.423zm78.574.422c-.424.001-.502-.342-.845-.423-15.205,2.117-28.976-.488-42.667.845-.311,16.877.479,33.688-.422,51.538 1.652.975 1.677-1.516 2.112-2.112 6.997-9.581 15.782-16.614 27.037-21.544 4.964-.95 8.678-3.151 14.785-2.958-.033-9.724-.087-15.924 0-25.346zm10.984,24.502c8.555.544 13.423,2.037 19.433,4.647 3.511,1.524 7.364,2.634 10.139,4.224 2.2,1.261 3.752,3.847 6.336,4.225-.146-13.553.288-26.853 0-37.597-10.166-.733-24.781.777-35.485-.423-.907,8.294.217,15.952-.423,24.924zm38.865-24.924c-.531.173-.863.545-.845,1.268 .798,12.799.371,25.135-.422,38.442 2.062,2.772 4.668,4.194 7.182,7.182 1.559,1.853 3.852,7.181 6.336,8.026 1.086.369 4.259.011 5.914,0 8.483-.056 15.914-.061 24.924,0-.411-19.234.553-35.326-.422-54.495-18.46.161-26.118.204-42.667-.423zm46.046,0c-.531.173-.863.545-.845,1.268-.006,16.2.004,36.044 0,53.65 11.176-.512 24.431,1.056 34.218-.845 .146-15.126-.082-34.75 0-53.228-9.137-.503-20.985.161-33.373-.845zm64.634.422c-.729,18.954-.165,35.479 0,54.917 11.217-.361 24.462-.249 33.796-.422-.072-13.545.161-33.104 0-48.581-.021-1.934 1.031-5.23-1.268-6.337-11.459.811-21.869.48-32.528.423zm36.753,0c.129-.858-1.221.086-1.268.422 .428,19.181.637,35.117 0,54.073 12.577.124 31.589-.089 46.891,0 .152-16.748.074-35.583.423-54.495-17.951-.139-32.045.45-46.046,0zm98.428,0c-.714,17.169-.233,35.081-.423,54.495 11.342-.65 23.587.048 34.219-.423 3.625-.161 6.772-.996 9.716,0 .192-14.676-.845-31.323-.845-47.313 0-2.531.701-5.726-.845-6.759h-.846c-13.162,1.414-25.914.454-40.976,0zm-497.637,0c-.423-.001-.502.342-.845.422-.48,19.982-.156,34.691-.422,54.495 5.765.107 17.324-.012 24.079,0 .851-2.938-.9-5.69-1.267-8.449-.372-2.792.425-5.624.422-8.449-.018-16.152-1.701-25.441-3.802-38.02-6.763-.346-11.566,1.213-18.165.001zm447.789,0c-.424-.001-.502.342-.845.422 .75,17.684-.003,38.312 0,54.073 19.253-.047 30.155-.19 48.581,0-.522-15.752-.304-38.987-.422-54.073-16.625-.359-31.098.121-47.314-.422zm95.472,54.073c2.947-.042 6.812.053 9.716-.422 1.045-3.531 1.121-7.666.845-11.406-1.127-15.258-4.233-31.226-10.983-40.977-.345,17.309.671,33.583.422,52.805zm-458.35-43.089c6.89,7.329 11.558,16.716 14.363,27.881-.089.474-.469.658-.845.845-.257-.024-.5-.063-.422-.422-2.861-11.502-8.167-20.559-14.785-28.304-1.997.233-2.297-.988-3.802-2.112-3.689.535-6.896,1.553-8.449,4.225 2.698.237 4.514,2.547 6.336,4.224 4.617,4.25 9.392,10.994 10.561,18.165 .138.844-.233,1.983 0,2.957 .377,1.572 1.344,3.038 1.69,4.647 .658,3.066.399,6.647.845,10.139 .266,2.079 1.138,4.046 1.268,6.337 .375,6.655-.674,15.262-1.268,22.389-.473,5.685-1.942,9.75-2.957,13.518-1.076,3.993-1.31,5.228-2.957,8.449-1.837,3.593-2.879,5.359-5.069,8.026-1.293,1.575-2.473,3.441-3.379,4.224-1.68,1.452-4.082,1.53-5.069,3.379 6.284-.224 10.532-3.87 13.518-8.449 2.114-3.241 3.091-6.8 4.225-10.561 1.152-3.823 2.926-7.785 3.379-11.828 .537-4.793 1.219-7.976 1.69-11.406 .53-3.864.707-7.824.845-11.406 .263-6.803-.685-13.019-1.268-18.587-.95-9.082-3.198-16.066-5.492-23.234 .007.021-.333-.683-.422-.845-1.297-2.34-4.061-5.051-5.492-6.759-.801-.957-1.158-2.052-1.69-2.535-1.629-1.478-4.273-1.452-4.646-3.802 17.54,8.352 21.366,36.788 20.7,59.986-.118,4.092-1.025,7.96-1.268,11.829-.088,1.397.463,2.87.422,4.225-.124,4.096-1.854,8.962-2.957,13.096-1.215,4.552-2.969,8.581-5.069,12.25-1.464,2.559-3.049,4.661-4.224,7.182-1.947,1.01-3.472,2.443-5.492,3.38 2.945.728 5.925-1.734 7.604-3.38 5.702-5.588 9.226-15.231 10.984-25.347 .378-2.177-.082-4.623.422-6.759 .231-.979 1.1-1.932 1.267-2.957 .68-4.172.314-8.926 1.268-13.096 .323-1.412 1.125-2.475 1.267-3.802 .306-2.849.208-6.158 0-8.871-.327-4.256-.873-8.816-1.267-12.673-.185-1.807-2.05-4.499.422-5.914 1.483,4.683 1.396,10.339 1.69,16.053 .669,13.042.044,27.55-2.535,40.132-2.295,11.197-5.93,18.927-10.983,26.191 2.497-.975 4.16-3.888 5.915-6.336 2.548-3.556 5.699-7.121 4.646-11.829 1.563-2.283 1.403-4.918 2.112-8.026 .26-1.137.988-2.18 1.268-3.379 .619-2.657.355-5.648.845-8.449 .256-1.462 1.039-2.753 1.267-4.225 .397-2.556-.044-5.415.423-8.026 .339-1.895 1.478-3.658 1.689-5.492 .469-4.068.017-9.951-.422-14.786-.314-3.466-1.707-7.432-2.535-11.406-2.396-11.497-5.019-18.771-10.983-25.347-3.135-3.457-4.524-4.942-8.871-5.492-.84,1.295 1.125,1.515 1.687,2.113zm19.01,22.389c6.487,25.699 3.221,59.66-5.069,81.109 1.472-2.302 3.114-4.583 4.225-7.182 1.082-2.531 2.533-5.371 3.379-8.026 .285-.894-.248-1.834 0-2.957 .415-1.875 1.513-3.768 1.69-5.915 .614-7.458 1.074-12.223 2.957-18.165 .339-1.491 2.303-1.358 2.535-2.957-.043-12.171-.335-25.489-4.224-36.33-1.308-3.644-3.715-6.435-4.225-10.139-4.058-4.109-6.485-9.849-13.096-11.406 4.434,5.92 9.533,12.875 11.828,21.968zm-34.641-1.267c1.036,1.357 3.578,1.209 3.379,3.802 1.444.317.537-1.716 2.112-1.267 6.372,7.584 7.744,25.246 7.604,38.442-.017,1.64-.85,3.579-.845,5.069 .014,3.969.044,4.154-1.268,7.181-2.334,5.388-5.041,9.098-10.139,10.562-2.06-.756-3.546-2.086-5.069-3.38-4.297-7.894-7.313-20.481-6.337-32.105 .342-4.068 2.003-8.531 2.957-12.673 .608-2.641.356-4.791 1.268-6.759 .931-2.011 2.836-3.138 3.379-5.069-2.538-1.968-3.061-5.951-4.647-8.871-1.631,3.986-3.313,8.776-4.224,13.518-.971,5.054-2.037,10.483-2.535,15.63-.351,3.619.156,7.862 0,11.829-.22,5.596-.778,10.867 0,15.63 .316,1.935.855,4.065 1.267,5.914 .489,2.197.762,4.439 1.268,6.337 2.44,9.167 7.533,16.358 11.828,22.389 2.384-1.34 4.36-2.271 5.914-4.224 1.829-2.298 4.559-4.724 5.915-6.759 3.404-5.112 3.184-8.869 5.069-15.208 .763-2.566 1.865-4.769 2.112-7.182 .263-2.566-.215-5.021 0-7.604 .308-3.681 1.163-7.318 1.268-10.983 .09-3.142.209-6.373 0-9.294-.469-6.54-2.111-13.431-3.379-18.165-.845-3.151-1.476-5.083-2.535-7.604-1.51-3.595-1.769-5.405-3.38-7.604-1.767-2.412-3.89-4.089-5.069-6.337-2.381-.857-4.56-1.917-6.759-2.957-1.735,5.716.051,12.534.846,17.742zm194.747,74.349c1.296-2.928 2.962-6.35 3.802-9.293 3.791-13.291-.928-29.627-5.492-38.02-5.646-10.383-13.447-17.95-23.234-23.657-3.42-1.995-7.378-4.301-10.983-5.492-13.004-4.296-30.914-2.754-41.822,2.112-15.075,6.725-25.488,18.376-31.261,33.795-.809,2.162-1.596,4.243-2.112,6.336-1.017,4.122-1.996,8.561-1.689,12.673 .075,1.004.669,1.852.845,2.957 .226,1.421-.228,3.019 0,4.225 .736,3.888 2.223,7.813 4.225,10.561-1.158-7.024-2.949-13.411-2.535-20.7 .864-15.223 8.854-27.925 16.475-36.752 11.686-9.627 27.987-18.306 49.426-14.786 11.275,1.852 22.988,8.203 30.416,15.63 7.889,7.889 15.284,20.92 16.475,34.218 1.041,11.613-1.735,20.713-4.647,27.459-.633,1.468-.775,3.728-2.535,4.225-.163-1.796.997-3.487 1.69-5.069 2.811-6.422 5.323-16.806 4.647-24.079-1.952-21.003-14.825-37.521-30.416-45.624-7.255-3.771-14.044-5.659-23.234-5.914-3.221-.09-6.853-.327-9.716,0-12.24,1.394-25.62,8.705-33.795,18.165-6.808,7.877-12.852,19.625-13.518,32.528-.52,10.078 1.891,20.293 6.337,29.148 2.212,4.407 4.759,9.625 9.293,11.406 1.109-1.217-.811-1.876-1.267-2.535-2.104-3.037-4.308-5.42-5.915-8.449-2.001-3.773-3.91-8.586-5.069-13.096-2.634-10.245-2.032-21.804 1.268-31.261 4.214-12.076 13.351-21.39 23.657-27.036 9.12-4.996 18.535-8.328 31.683-7.182 22.479,1.96 43.08,20.341 47.736,41.822 2.004,9.249 1.134,19.443-1.268,27.037-1.289,4.073-5.069,7.943-3.802,11.406 3.825.376 5.112-3.995 6.335-6.758zm-92.516,25.77c2.272,2.515 5.111,4.464 8.027,6.336 5.325-1.276 10.357,1.112 10.983,5.914-1.59.621-3.993-.225-5.915.845 .463,6.859 2.381,12.264 4.647,17.32 5.801-.677 10.028-2.927 14.786-4.647-1.533-3.945-5.025-6.708-7.604-10.139-1.585-2.108-2.472-4.834-4.225-6.759-1.465-1.609-3.817-2.42-5.492-3.802-1.897-2.662-.782-6.159-2.112-8.871-3.067-.11-1.671,4.243-3.379,5.492-1.864-2.936 1.947-6.915-.845-8.449-3.021.916-3.144,5.552-3.379,8.026-3.137-2.592.259-6.927.845-9.716-4.31-4.36-8.573-8.286-11.406-13.518-4.416-8.155-7.377-17.494-6.336-29.994 2.128-25.56 26-46.71 53.65-44.356 13.293,1.132 27.35,8.311 35.062,17.743 7.475,9.141 13.417,22.734 11.406,39.287-.836,6.883-4.661,12.239-5.492,18.165 1.978.117 1.974-2.269 2.534-3.379 1.516-3.001 2.418-5.357 3.38-8.871 1.636-5.977 2.281-14.949 1.267-21.122-4.037-24.583-27.831-44.098-51.96-43.935-28.504.193-51.625,22.338-51.96,51.116-.145,12.453 4.745,23.826 10.139,31.261 1.451,2 3.731,3.737 4.647,6.337-.766,2.755-4.135,2.906-3.379,7.181 3.577-1.07 2.4-6.894 6.759-7.181-1.361,3.427-3.298,6.278-4.648,9.716zm408.925-97.162c2.642,16.343-2.284,31.545-3.802,44.779-4.192,12.565-9,24.514-16.898,33.373 3.794-.854 5.12-4.174 8.449-5.492 2.286-4.221 5.077-7.902 6.759-13.096 1.627-5.022 2.032-10.871 3.803-16.053 .506-1.482 2.052-2.689 2.534-4.225 .564-1.796.423-4.446.845-6.759 1.766-9.666 2.323-23.259-.422-33.373-.54-.023-.585-.542-1.268-.423-.061.501-.752.959 0,1.269zm-458.773,5.069c-.182-1.367.556-3.654-.845-3.802 .38,1.169-.867,3.966.845,3.802zm135.604,32.951c-.82-3.009-1.504-4.387-2.534-6.759-5.741-13.217-17.795-23.557-32.106-27.459-25.326-6.905-48.751,8.583-57.452,27.459-.153.333.084.908 0,1.268-.127.541-.713.501-.845.845-3.287,8.554-3.614,21.778-.845,29.993 4.969,14.746 13.516,25.224 26.614,31.261 4.731,2.181 10.266,3.871 15.208,4.225 16.574,1.188 27.159-4.374 35.485-10.561 .648-.481 1.758-.73 2.112-1.69-.189-2.614 1.655-8.257 4.647-7.604-1.932,3.477.874,5.408 1.267,8.871-.361,1.952-2.325.104-2.535,1.689 .699,2.54.887,5.59 2.957,6.759-.736.382-1.627.945-.845,1.69 3.965,2.511 9.996-.728 12.673-3.38 1.321-1.495.812-4.82 1.69-6.759-3.139-2.702-3.543-9.686-8.449-9.294 .104,3.541 5.096,6.28 2.957,9.294-3.429-2.625-2.602-9.508-7.604-10.561-.115,1.721 1.072,4.019 2.112,6.336 .878,1.956 3.676,5.135.845,6.337-1.645-4.974-4.177-9.06-5.492-14.363 .956-.312.924-1.61 2.112-1.689 2.074-.384 1.609,1.771 3.38,1.689 5.545-10.518 8.085-24.998 4.648-37.597zm-185.452-27.459c-3.382-.977-6.997-.528-4.647,3.802h2.957c4.245,5.828 4.759,16.475 3.802,24.079 1.625.346 3.043.899 2.535,3.379 1.722-.314 1.455,1.362 3.379.845-.331-1.88.562-2.536.422-4.225-.386-1.149-.785,1.125-2.112.422-2.155-1.623-1.973-8.396 2.112-7.604-.306-1.292.729-1.243.422-2.535-.499-.486-1.493-.478-2.534-.422-1.188-1.314-2.092-5.599-.423-7.182 .747.371 1.233,1.339 2.112.422-.058-1.913-.795-3.148-1.267-4.647-2.227,2.437-4.18-1.011-5.915-1.689 .576-2.541 2.607-5.646 5.069-3.802 .034-3.835-1.918-5.686-4.224-7.182-.534,1.126.288,5.455-1.688,6.339zm49.426,9.294c.721-3.731.749-10.077-.422-12.251 .279,3.945-.561,9.009.422,12.251zm-52.805,26.191c1.232-1.318-.479-1.931-.422-3.379 .088-2.252 2.325-6.639 2.535-8.027 .557-3.687-.747-7.375-1.268-9.716-.903-4.063-.267-5.199-2.957-6.337-2.476,8.678-3.317,22.612 2.112,27.459zm52.383-12.673c1.571-.752.81-3.558.845-5.492 .039-2.163-.03-4.535 0-6.337-.558-.005-.386-.74-.845-.845-.135,4.823.005,7.525 0,12.674zm422.864-12.251c.167,9.019-.478,22.422.423,32.105-1.333.446-.818,2.699 0,3.38 .979-2.12 2.165-4.03 3.38-5.914-.705-1.662.104-2.997 1.267-3.802 .35-1.194-.595-1.094-.422-2.112 3.834-5.881 3.413-16.019 5.491-23.657-3.382-1-6.519.763-10.139,0zm-419.907.422c-1.124,11.656-.455,26.784-.845,39.71 3.942-.656 8.977-.422 13.94-.422 5.065,0 10.272.456 13.096-.423-3.269-13.528.833-29.12 6.337-38.865-8.514-.446-21.538.29-32.528,0zm140.673,0c5.443,9.255 8.855,24.972 6.759,39.288h23.657c-.224-11.293.298-24.273 0-35.063-.033-1.2.75-3.536-.845-4.225-.024-.257-.063-.5-.423-.422-8.878.978-19.567.146-29.148.422zm33.373,0c-.089-.51-.469-.26-.845,0-.321,11.362.586,27.242-.422,39.288 12.509-.151 22.091.548 34.64-.423 .273-10.063-.104-26.295 0-38.865-9.741-.064-22.312.045-33.373,0zm199.393,0c0,14.171.065,25.845 0,39.71 16.311-.88 28.039.412 44.356-.422-.222-13 .479-28.75-.422-39.71-11.424.665-29.298.357-43.934.422zm-498.06.423c-.931,13.102-.277,27.725 0,40.132 9.221-.897 20.52-.484 28.726-.422 .038-7.101-1.759-12.598-2.535-18.165-1.026-7.365-.674-15.032-2.535-21.967-7.032.888-17.332.164-23.656.422zm27.459,0c1.31,13.947 3.218,27.232 5.914,39.71 2.537.296 7.17-.366 10.139,0 .074-12.513.752-26.79 0-39.71-4.946-.38-11.941.041-16.053,0zm19.432,0c-.089-.51-.469-.26-.845,0-.703,12.258-.703,27.452 0,39.71 4.117.199 6.627-.562 10.139,0 .541-4.288-1.834-8.399-2.535-13.518-1.16-8.477.734-18.234 0-26.614-1.68.713-4.456.331-6.759.422zm316.41.423c.278,12.676-.559,26.469.423,38.442h33.795c-.743-8.964-.422-20.625-.422-29.994 0-3.464.993-7.882-1.268-9.294-9.85,1.129-24.008-.255-32.528.846zm35.907-.846c-.171,10.055.298,28.382-.422,39.288 19.016-.315 32.687.893 46.891,0-.038-11.641.234-28.284 0-38.865-18.388-1.15-31.384.443-46.469-.423zm48.581,1.268c.352,13.933-.823,26.898 0,38.442 18.94.078 29.986.238 48.159,0 .214-13.022-.472-26.944.422-39.288-15.434-.734-30.326-.229-47.736-.422-.594.111-.482.927-.845,1.268zm-377.664,30.415c-1.109-2.676-2.73-6.944-6.336-4.646 2.024,2.341 1.379,7.352 5.069,8.026 .209-1.873-2.661-3.816-.845-4.647 1.838,1.683 2.67,4.37 5.915,4.647-.165-2.229-2.72-2.068-3.803-3.38zm294.443,9.294c-.499.205-.958.45-1.268.845-.469,14.091 1.074,28.549.845,42.667-.068,4.197-1.543,8.318 0,11.828 9.293-.774 21.436-.284 32.528-.422 .538-14.918.471-37.461.423-54.073-9.6-.691-21.36.16-32.528-.845zm-364.568,1.268c.084,17.187.37,30.094 0,47.313-.049,2.27-.84,4.703.422,7.182 16.891-.258 26.711.827 42.667,0-5.374-17.053-10.914-36.069-13.518-54.495-9.44-.954-22.841.213-29.571,0zm67.591,19.854c-3.993-6.004-8.129-11.866-10.139-19.854-.424.001-.502-.342-.845-.423-1.955-.116-7.233.084-10.561,0-.764,7.212-.422,15.968-.422,24.502 0,11.913-1.537,24.516 2.112,30.838 15.825-.571 28.756-.326 44.779,0-1.596-7.238-.679-22.615-.422-29.571-10.11,2.211-19.069-.609-24.502-5.492zm56.607-20.699c-.445,18.659-.555,35.472 0,55.34 11.921.04 21.348.07 33.373.422-1.023-12.376-.034-27.489-.422-39.287-2.665-4.658-5.029-9.616-5.915-16.053-8.584-.473-18.514.475-27.036-.422zm138.984,20.699c1.002,1.814 1.932,3.701 2.958,5.492-4.021,7.867 3.008,14.021 3.802,21.123-.108.877-1.856.115-2.112.845 1.788,3.986 3.444,8.103 5.069,12.251 8.646.65 12.928,8.935 15.208,17.32 3.441-1.485 4.863-6.29 3.802-10.983-2.524-1.777-3.871-6.604-7.182-8.872-1.916-1.311-5.355-2.76-7.604-2.534-2.482.249-2.752,2.508-5.069,2.112 .897-7.99 9.723-5.503 13.518-1.689 2.881-1.141 7.653.116 10.139-.422-.605-17.745.07-33.492 0-55.34-7.969-.146-17.425.211-24.079,0-1.868,7.847-4.698,14.734-8.45,20.697zm34.64-20.699c-.001,18.68-.38,37.989 0,55.34 9.581.342 23.907-.415 32.105-.423 .795,0 2.642.891 2.957-.422-1.192-16.9-.291-35.922-.422-54.495-11.962.369-23.819.63-34.64,0zm101.809,0c-.594.11-.481.927-.845,1.268 .668,13.562.484,36.788 0,53.228 16.529.213 33.669-.554 47.313.845-1.06-19.149.082-38.072-.423-54.918-14.882.046-30.656.232-46.045-.423zm98.429.845c.382,18.512-.455,36.781.423,53.65 14.239-.207 31.866.738 44.356,0 .289-9.101-.768-22.503-.423-31.683-3.011-2.199-8.79-1.629-11.828-3.802 .012-3.337 3.582-4.553 5.069-6.759 .749-1.111.641-2.627 1.268-3.802 1.406-2.635 4.611-4.579 4.646-8.026-14.81.54-27.089-.232-43.511.422zm-464.687.845c2.354,12.689 5.875,25.856 8.449,37.597 .359,1.638-.052,3.987 1.69,5.069-.13-18.181.747-29.252 0-43.511-3.088-.682-5.977-.207-10.139-.423v1.268zm433.849,57.452c-60.704-.087-126.275.167-177.849,0 .271,3.619 4.802,5.016 5.069,9.294 .347,5.546-4.556,9.699-6.336,14.363 10.289-.713 20.546-.178 30.838-.422 24.024-.57 47.87.818 70.548.422 19.267-.336 40.312.538 61.677.422 3.252-.018 6.757-.89 7.604.845-.523,1.969-2.894,1.21-4.225,1.267-11.113.478-21.192-.311-31.683-.422-23.923-.255-48.599-.117-77.729,0-7.122.028-14.144.497-21.122.422-6.599-.07-13.166.495-19.433.422-2.005-.023-4.278-.769-6.336-.845-2.723-.101-5.406-.209-8.026.422-2.067.775-2.021-2.734-2.957-1.689-1.157.674-2.084,1.577-3.38,2.112-1.009,1.22 1.499,1.63 2.112,2.535 1.45,5.432 7.476,8.401 9.294,13.941 .264.805.818,2.8.845,3.802 .136,5.169-3.682,10.187-4.224,14.786 20.572-.317 39.939.188 61.677.422 26.34.285 52.359-.252 77.729,0-2.291-8.371-.89-17.949 2.112-23.234 .516-.909.727-2.244 1.267-2.957 1.854-2.447 5.958-4.981 8.871-5.492 5.99-1.049 9.728,2.681 13.941,1.267 1.694-.569 2.697-2.28 4.224-4.224 1.36-1.732 3.27-3.595 3.38-5.492 .164-2.813-2.774-5.098-2.534-8.026-32.719.285-62.836-.196-93.782-.422-17.816-.13-42.767.422-64.634.422-3.281,0-7.611.948-8.872-1.267 2.956-1.559 6.629-.845 9.716-.845 53.857,0 102.31-.031 157.993,0 .441-2.094.749-4.321.845-6.759 3.091-2.782 4.16-6.432 8.449-8.449 6.628-3.117 16.313,0 24.079-.845-1.223-18.126.463-36.549-.845-54.495-17.01.897-33.983.323-47.736,0 .287,17.994-.662,40.144.423,54.918 7.017-.493 12.214-.26 19.433,0-.48,1.853.002,1.387.422,2.957-.089.473-.469.657-.845.844zm-367.103-38.443c-2.357,2.175-5.742,3.523-6.337,5.492-.25.829-.05,4.576 0,6.759 .182,7.945.145,17.209.422,22.39 5.625-.088 8.738-.088 14.363,0 .983-14.507.143-30.836.422-46.046-.089-.474-.469-.658-.845-.845-1.284,3.793-4.871,9.34-8.025,12.25zm484.964,2.535c.294,10.549.587,21.099 1.268,31.261 6.208.162 8.682,1.548 13.096,0 .487-13.314-.247-26.976 0-41.822-.089-.474-.469-.658-.845-.845-3.199,5.11-8.588,8.029-13.519,11.406zm-223.472-2.957c.599-1.483.726-4.53-.423-5.492 .272,1.701-.548,4.493.423,5.492zm205.73-.422c-2.958,1.83-3.601,5.975-6.76,7.604-5.525-.952-9.562-3.392-15.63-3.802-1.036,9.919-.054,21.449.423,31.261 11.815-.91 26.255.087 38.441-.422-.419-10.282-.108-21.295-.845-31.261-6.24-.097-9.796-2.877-15.629-3.38zm-394.139,19.854c-3.631-6.647-8.114-12.444-13.096-17.742-.089-.511-.469-.26-.845,0 .278,10.987-.558,23.088.423,33.373 7.522-.226 16.616.848 24.501-.423-.01-3.087-1.386-4.81-.845-8.449-3.839-1.792-6.638-4.626-10.138-6.759zm188.409-13.096c.474-1.755.455-3.645-.423-5.069 .539,2.162-.541,3.334.423,5.069zm-118.284-.844c-7.759,7.859-23.415,13.628-38.442,11.829-5.84-.7-11.113-3.473-16.475-5.069-.809,1.117-.439,3.878 0,5.069 7.948,3.689 18.193,6.342 29.571,5.069 7.624-.853 16.346-4.48 21.544-7.604 2.124-1.276 5.2-2.563 5.069-5.069-3.368,1.612-6.61,4.03-10.561,5.914-9.5,4.53-20.846,6.12-32.95,4.225-4.545-.712-9.211-2.496-10.984-4.647 15.75,7.377 36.451,4.52 48.581-3.379 2.322-1.513 5.596-2.902 5.492-5.915-.093-.33-.354-.492-.845-.423zm7.604,12.673c-1.182,3.606-1.604,7.972-1.69,12.673 7.213,2.658 14.944-.97 18.587-4.647-1.933-4.263-2.94-9.451-5.492-13.096-2.229,3.825-6.471,4.899-11.405,5.07zm110.68,1.267c.591-1.115.78-4.83 0-5.914-.591,1.115-.781,4.831 0,5.914zm-114.904-1.267c-.093-.329-.354-.491-.845-.422-9.17,7.164-22.386,10.283-38.02,10.983-1.335.208-.157-2.096-1.689-1.689-1.407,2.019.862,6.23-.845,7.181-1.528-.725-1.249-3.257-1.267-5.492-1.917-1.25-2.472-1.237-5.492-1.267 2.368,3.259 5.963,7.182 8.026,10.138 .505.724.374,1.912.845,2.535 1.483,1.959 3.497,3.201 4.647,5.492 .302.601.168,1.956.422,2.535 .772,1.758 2.105,2.264 2.957,3.802 .803-.53 1.541-.712 2.535-.845 4.676-.625 10-.308 14.786-.422 6.635-.16 14.352.115 18.587,0 1.688-.046 4.196-.641 5.492.845-1.649,2.308-5.346,1.267-8.026,1.267h-29.148c1.858,1.921 4.484.939 6.759,1.268 9.826,1.417 17.523,6.104 23.657,10.561 2.163.332 3.069-.592 5.069-.422-.4,6.222-1.494,15.528 7.182,14.785-.813-2.055-2.415-1.596-2.535-3.802-.107-1.973 2.694-3.385 2.957-5.914 .345-3.321-.552-4.422-3.802-6.337-1.226,2.436-.421,6.901-2.535,8.449-1.767-1.472 1.588-5.862 0-8.449 .868-.118.843-1.128 1.267-1.689-1.293-1.322.518-3.123 0-5.069 .394-1.156 1.296-1.802 1.69-2.957-2.984-4.198-3.899-10.464-4.225-17.32-1.766-.217-1.159,1.939-2.112,2.535-16.026.571-28.458.086-43.934.422-.418-1.569-3.18-2.518-2.535-3.802 10.182.327 23.165.303 34.218.422 3.288.035 6.703-.195 9.293-1.268-.993-.696-3.247-.133-3.379-1.689-.085-5.324 1.356-10.027 0-14.365zm10.138,15.63c-.077,2.822 1.81,5.261 2.112,8.449 .805,8.475 3.44,13.265 6.759,18.165 .125,1.111-1.639.333-1.267,1.69-.323,7.504 2.3,12.063 5.914,15.63 1.465-1.58 3.438-.285 5.069-.845 2.313-.794 4.63-4.412 5.492-6.759 2.017-5.498-.94-9.703-4.224-13.518-1.57-.162-1.104,1.712-2.957,1.267 .308-1.152-.84-.85-.845-1.689 .625-2.327 1.86-4.819 1.268-6.759-.985-3.225-3.683-8.497-5.069-12.251-.962-2.604-.747-5.034-2.535-6.336-3.295.929-5.356,3.093-9.717,2.956zm107.723,2.958c25.219.844 49.777.98 70.125.422 2.761-.076 5.555.785 8.026-.422-26.151-.934-50.736-1.219-78.151,0zm-9.294.422c.849-1.182.636-.262-.423-.422-2.095-.317-8.616-.495-11.405-.422 .302,1.147-1.992-.302-1.69.845l13.518-.001zm7.182-.845c-1.7.271-4.492-.549-5.492.422 .921.397 5.272,1.224 5.492-.422zm-371.327,1.267c3.664-.279 8.445.56 11.406-.422-2.974-.523-9.077-1.053-11.406.422zm13.096-.422c-.258.024-.5.063-.422.422 11.051.639 21.846.047 31.261,0 2.983-.015 6.332.852 8.871-.422-16.6.143-24.593-.971-39.71,0zm43.934,0c.048.516.126,1 .845.845 14.872.085 30.595-.422 48.581-.423 3.539,0 7.704.709 10.983-.845-23.804.217-40.794.147-60.409.423zm60.831.422h5.914c-.286-1.482-5.581-1.229-5.914,0zm-60.409,2.113c.483,2.052 1.001,3.996 1.689,5.915 .617,1.72 1.467,4.067 2.535,5.069 24.467.181 64.506,0 98.852,0 13.979,0 29.449.629 39.709-.845 1.284.011 3.44,1.32 3.379-.845-.262-2.977-4.106-2.371-6.759-2.957-1.116-2.123-1.631-4.846-2.958-6.759-48.429-1.257-89.222.581-136.447.422zm149.122,5.492c1.573,6.756 3.792,14.571 6.759,18.587 3.103,1.403 5.97,3.042 9.293,4.224 2.275-4.906 6.806-7.557 9.294-12.251-3.729-2.002-9.348.148-11.829-3.379 .071-.492.668-.458 1.268-.422-1.336-3.765-6.259-6.09-5.069-10.983-.582.018-.928-.199-1.267-.422-1.611,2.752-5.714,3.015-8.449,4.646zm87.024,8.026c.688-2.162-1.796-3.681-2.957-5.069-2.343-2.805-3.841-5.771-8.026-5.915 1.029,6.292 6.245,8.399 10.983,10.984zm198.97-3.802c-.444.023-.333.542.422.422 3.327-1.235 8.691,2.875 11.406.845-2.798-1.33-7.971-2.386-11.828-1.267zm-285.572,7.604c-.693-1.528-1.028-3.635-2.535-4.647-2.151-.766-4.083-.611-5.069-.422-7.038,1.344-13.524.441-20.699.422-39.951-.102-78.938.886-116.594.422 .748,3.617 2.077,6.654 3.379,9.716 26.441.145 50.795-.677 74.772,0 22.112.625 43.974.128 68.858-.422-.148-1.953-1.34-3.369-2.112-5.069zm282.615-2.535c-4.206.686-5.423-1.619-8.026-2.535-1.819,2.512-.329,6.408 2.534,6.759-2.382,1.654-.737,4.782-1.689,7.604 3.238.845 4.377,3.79 9.294,2.957 1.5,1.954 5.406,2.942 7.604.845 .305-1.291-.432-1.54-.423-2.535 .753-.655 1.655-1.162 2.535-1.69-.73-.678-2.612-.205-2.957-1.267 .173-1.018-.771-.918-.423-2.112 1.273-1.261 4.673-.396 6.337-1.267-.642-2.174-1.214-4.419-3.38-5.069-1.84,1.116-2.955,2.959-5.069,3.802 .074-3.174-.718-4.719-2.112-7.182 1.226-.915 2.43.769 2.957-.845-3.036-.617-5.941-.293-7.182,2.535zm-11.406,4.647c-.796,1.176-1.947,1.995-2.957,2.957 .314,4.961-4.301,4.993-5.069,8.871 1.182.79 2.061,1.882 3.802,2.112 4.274,3.471 5.508,9.982 11.406,11.829 .347-.914-.233-3.073.422-4.647-.581-1.082-3.234-3.242-1.267-4.225 2.245.852 2.279,3.916 3.802,5.492 1.677-4.66 1.09-9.009-2.112-11.406-1.934-1.447-4.914-.909-5.914-3.379 .543-2.716-.156-4.874.422-8.026-.437-.971-.872-1.944-1.689-2.535-.629-1.419 1.172-3.662-.422-3.38-.27,2.291-1.001,4.333-.424,6.337zm-192.211-5.492c2.131,3.361 5.461,5.522 6.759,9.716 .34-1.35 2.172-1.208 2.958-2.112 .864-7.101-5.335-7.95-9.717-7.604zm-41.822,4.225c-3.937.275-5.609-1.713-9.294-1.689-2.809,4.28-6.68,8.884-8.026,14.785-.538,2.358.335,5.011-1.268,7.182 4.9-.394 8.083.93 11.829,1.69-.001-2.631-5.277-1.911-3.802-4.647 3.046.474 4.089,2.952 6.759,3.802 1.227-6.189-5.886-8.555-3.802-12.25 3.753,2.725 5.763,7.192 6.336,13.096-3.315,5.704-3.861,14.337-1.267,20.7 .575,1.41 1.612,1.787 1.689,3.379 .133,2.725-2.081,5.543-2.535,8.449-.3,1.928.129,4.734 0,7.182-.135,2.571-1.252,5.236-.845,6.759 .739,2.763 5.283,6 8.026,7.182 2.995,1.291 6.35,1.127 9.716,2.535 2.176-1.317 4.708.171 7.182,0 3.648-.253 7.799-2.014 11.828-2.535 2.136-.276 4.185.314 6.337-.422 .639-1.191 1.021-2.641.845-4.647 4.768-6.798 11.927-13.393 10.561-24.924 3.628-2.948 7.017-9.568 7.604-15.208 .812-7.809-2.7-9.67-5.492-13.518-1.728-2.382-2.265-5.116-4.225-6.336-1.102,5.938-4.388,9.693-9.293,11.828-1.763-1.03-4.038-.898-6.337-.422 1.183,2.663 1.559,5.543 2.957,8.026 1.045,1.854 4.073,3.352 2.958,5.915-6.424-1.284-4.686-15.963-13.096-12.674-1.032,1.796-3.089,2.771-4.224,4.647-1.818,3.004-1.845,7.78-4.225,10.139-1.327.2-1.726-.527-2.112-1.268 1.514-5.95 4.418-10.509 7.604-14.786-1.33-1.788-4.448-2.813-5.069-5.492-.543-2.343.788-5.404 1.268-8.026-4.792.198-6.866-.617-10.561,0-1.581,1.052-3.128,4.06-5.914,2.535 1.851-1.81 2.899-4.423 6.336-4.647-.627-4.304-5.959-3.901-8.448-6.34zm25.769,3.802c-.131-1.277.469-3.286-.845-3.379 .104,1.649-2.129,3.478.845,3.379zm-90.825,179.537c-1.07-3.887 3.712-5.319 5.914-7.181 2.695-2.279 4.997-4.484 6.759-7.182 8.738-6.188 14.634-15.219 19.432-25.347 .227-1.541-1.505-3.753.845-3.802 3.8,3.01-1.708,7.797-1.267,10.983-1.76,1.056-2.756,2.877-3.379,5.069 1.452,3.336 7.172,2.402 8.449,5.914-3.927,2.654-6.15-3.319-10.139-3.38-3.372,4.619-6.25,9.794-8.871,15.208-.977,2.018-2.483,4.493-2.535,5.914-.077,2.113 2.191,5.214 3.38,8.449 1.192,3.245 1.844,6.434 2.957,8.871 2.478,5.426 6.229,10.959 8.026,16.053 1.242,3.521 1.445,6.34 2.112,10.139 1.585,9.019 9.507,12.048 12.673,17.743 2.514.657 5.711,2.758 7.604,5.491 1.308,1.89 5.373,8.632 1.267,9.294-2.227-5.519-4.874-10.616-10.561-12.674 2.879,4.89.567,12.585 2.957,18.165 9.823,1.362 20.925,4.782 30.838,3.38-.306-1.578-1.264-2.975-1.69-4.646-1.575-6.188-1.56-11.548-2.535-17.32-.637-3.775-2.751-7.35-3.802-10.983-.599-2.071-.737-4.682-1.267-6.76-.414-1.618-2.939-4.86.422-5.491 4.813,14.743 7.668,30.216 11.828,44.778 1.845.015 2.495-1.166 4.225-1.267-4.064-19.257-9.582-38.972-18.165-54.918-1.996-1.806-4.178-3.426-5.492-5.914-2.989-1.518-6.212-2.8-8.026-5.491-3.735-1.646-9.143-3.773-9.294-7.604 4.129.8 6.459,3.397 9.716,5.069 .521-1.475-1.168-2.501-1.69-3.802-1.689-4.216-2.278-7.917-5.492-10.139-3.49-2.413-8.333-2.266-11.829-5.069-.099-2.142-3.616-2.685-2.112-5.069 2.401.138 3.139,2.728 5.069,3.802 2.346,1.307 5.544,1.446 8.449,2.535 1.252-6.3-5.628-9.996-4.225-16.476-.76-.789-2.507-.591-2.112-2.535 .187-1.272 1.143-2.384 1.268-3.802 .275-3.136-1.922-5.944-2.112-9.294-.149-2.632 1.133-5.352 1.268-8.026 .496-9.864-6.011-17.729-8.026-24.924-.293-.833-2.357.104-2.535-.845-.865-1.106-1.473-2.471-1.268-4.647-5.857,1.442-12.151,1.729-18.165.846-1.205-.178-2.202-.801-3.379-.846-6.18-.232-11.651,3.391-14.363,6.337-1.174,1.275-.519,3.761-3.802,3.802-.558-2.526 2.109-5.294 3.802-6.759 1.914-1.656 6.425-4.87 8.449-5.491 7.106-2.183 16.405,2.837 23.234.845 .857-1.812-1.274-3.032-2.112-4.225-1.659-2.36-2.558-3.738-5.069-5.069-1.808-.958-3.814-2.53-4.647-4.225-.725-1.476-.393-3.021-.845-4.646-1.677-6.025-4.695-9.568-8.449-13.519-6.533-6.874-15.624-10.539-23.657-15.63-1.732-.662-4.9.111-4.224-2.957 6.125-.329 11.435,3.756 15.63,6.759 12.14,5.462 20.975,14.229 24.079,28.726 1.249,2.536 4.912,2.656 6.759,4.225 2.596,2.204 2.771,6.658 5.915,8.449 1.802-2.562 2.833-5.897 5.914-7.182 1.066,2.313 2.275,4.484 2.957,7.182-1.173,1.08-3.05,1.456-5.492,1.268 .695,3.564 3.726,8.357 6.337,11.405 2.418-5.89 6.553-10.062 7.604-17.319 2.503-4.819 5.841-8.805 8.449-13.519 1.022-.384-.958-1.247-.423-2.535 1.219-3.494 3.408-6.696 4.647-10.139 .818-2.271.508-3.489 1.268-5.069 .506-1.054 1.064-1.521 1.267-2.534 .411-2.048-.26-4.046 0-6.337 .443-3.903 1.869-7.905 3.38-11.406-4.337-4.939-4.123-14.198-2.535-21.966-4.924-1.13-10.534-.837-14.786-1.69-.316-3.415.503-5.693.422-8.871-4.676-3.21-11.359-4.412-15.208-8.449-1.462,1.255-3.345,1.502-5.069,1.69-13.953,1.521-29.086-.583-44.779-.422-32.054.327-67.981-.111-93.36.422-.526,4.729 1.992,8.964 2.112,13.518 .042,1.583-.506,3.084-.422,4.647 .21,3.926 1.195,8.613.422,13.518-.339,2.152-1.8,4.117-2.112,6.337-.208,1.482.312,3.146 0,4.646-.297,1.428-1.862,3.314-2.957,5.492-2.446,4.864-4.664,9.007-8.026,11.828-1.574,1.32-3.385,2.247-5.069,2.957-.257,16.681.558,30.546 0,44.779 14.377-2.311 28.46.783 38.442,7.182 1.988-.905 2.662-1.779 4.647-2.535 2.253-.858 5.752-.531 7.604-2.112 2.654-2.266 1.538-6.906 2.535-10.983 .33-1.347 1.614-2.288 2.112-3.802 2.227-6.765 2.383-16.12 3.379-21.967-2.123-.259-4.993.396-5.914,0-1.264-2.82-4.422-3.745-6.336-5.914-3.41-.312-3.819,2.376-7.182,2.111-.809-2.711-.775-6.266-1.69-8.871-.603-1.242-3.022,1.974-3.379-.422-1.771-.318.573,1.613-1.267,1.689-1.353-.021-5.648,2.259-6.337-.845 1.706-3.224 5.158-4.7 6.759-8.026-2.482-3.053-3.02-7.535-3.38-13.519 3.142-3.759 6.588-7.212 10.984-9.716 5.965-1.219 13.222-2.431 20.277-1.268 3.101,3.517 6.274,6.962 8.026,11.828 1.727,1.512 6.957-.479 7.181,2.535 5.288-2.897 10.23,2.601 15.208,2.957 1.175.084 2.146-.792 3.379-.845 2.064-.089 6.432.529 6.759,2.534-2.38,1.728-7.976-1.165-10.983.845-3.208-.884-8.711-4.348-12.251-3.802-2.707.418-2.634,3.02-5.492,3.38-1.117-1.329.893-2.235.845-3.802-5.001.209-3.958,6.462-7.604,8.026-3.25-.856-3.261,1.526-5.069,2.112-1.167.181-.396-1.575-1.268-1.69 .03,1.438-1.243,1.573-2.112,2.112-1.148-1.96-2.721-1.131-5.069-2.112-1.229,1.024-1.773,2.732-2.957,3.802 3.022,3.737 5.012,8.506 5.492,14.786 1.765.356 1.995-.821 3.379-.845 1.378-3.161 1.079-7.319 2.535-10.984 1.322-3.326 7.211-8.088 9.716-8.871 1.449-.453 5.453-1.354 6.759.845-1.643,2.134-4.613,1.146-6.759,2.112-2.054.926-2.922,3.499-5.069,3.803-5.096,7.514-5.962,21.25-5.492,32.95 8.371,2.323 14.981,3.627 25.769,3.38 2.443-1.676 3.867-5.012 5.914-8.027 1.508-2.221 5.228-6.099 5.915-8.026 1.819-5.106-1.268-11.726.422-14.785 1.63.181 1.9,2.759 2.112,4.225 .995,6.867-.558,12.204-2.958,15.208 2.285.238 4.928.728 7.604.422 3.918-.446 10.479-3.801 13.096-2.111-.729,1.805-3.809,2.506-5.914,2.957-5.106,1.094-10.947,1.489-17.32,1.267-1.085,3.721-6.124,6.302-3.379,10.139-2.129,2.73-8.185,1.022-12.251.845 3.901,4.386 10.519,5.742 17.32,7.182 1.392.295 2.756,1.033 4.225,1.268 3.691.589 7.884-1.021 10.561,1.268-2.664,3.079-10.471-.008-13.518.845 3.632,5.239 6.675,11.067 12.673,13.94 1.371-3.839-.229-10.648 4.646-10.983-1.311,4.568-4.838,12.16-1.267,16.476 6.513,1.02 9.962-3.271 14.363-2.957-1.566,4.77-10.153,2.52-10.561,8.448 2.096-.132 5.988-2.102 7.604,0-1.806,2.884-5.276,1.129-8.026,2.112-1.416.507-3.989,2.79-4.647,3.38-.384.344-.893.496-1.267.845-5.68,5.297-7.775,13.104-13.096,18.165 .287,2.093-1.635,2.566-2.535,4.225-.821,1.511-.852,3.459-1.69,5.069-.858,1.649-2.486,3.062-3.379,4.646-1.331,2.363-2.336,5.205-3.379,7.182-2.203,4.173-3.979,10.236-6.337,13.519-.107,2.491.449,2.379-.845,4.646 .297,1.675.269,3.674 1.689,4.225-.596,1.268-2.208,3.183-1.267,4.646 6.325,2.406 14.364,3.097 22.39,3.802 .991-16.63 1.11-31.59 3.379-46.468 1.084-7.106 2.551-14.208 4.647-19.011 .577-1.321.49-4.017 2.112-3.379-.207,5.436-2.849,10.67-3.802,16.475-.97,5.911-1.997,12.219-2.535,18.588-.27,3.189.315,6.375 0,9.716-.589,6.242-1.412,16.573-.845,24.925-.776.632-1.053,1.763-2.112,2.112-6.996.659-10.534-2.14-16.898-2.112 2.804,6.686 6.469,14.578 7.182,21.967 3.178,3.44 4.493,8.743 5.914,13.94 1.137.976 2.256,1.969 2.958,3.38 2.965,1.904 10.269,6.777 7.181,10.561-2.033-.782-1.685-3.947-4.224-4.225-.008,4.498-2.012,7.001-2.535,10.984 9.353,5.365 27.472,10.042 38.442,2.957v-5.492c-3.882,1.328-7.012,3.408-11.406,4.225-2.56-.94-4.996-1.089-6.759-1.689-2.884-.984-4.953-2.432-7.182-2.958-1.226-.289-3.078-.271-4.647-.422-1.518-.146-4.293.948-5.069-1.268 3.025-1.692 7.296-.232 11.406,0 5.156,4.515 18.004,5.13 22.39-.422-1.839-.334-.228-1.674-.422-2.535-.862-3.821-3.467-7.69-4.647-12.251-1.23-4.757-1.469-9.765-2.535-14.785-1.628-3.153-2.691-6.02-4.224-8.871-3.067-5.706-7.227-11.065-11.406-15.631-2.239-2.446-5.446-4.552-6.759-6.759-.499-.838-3.036-5.369.422-5.914 2.135,4.905 5.699,8.383 9.716,11.405 .253-6.588-1.345-10.622-3.802-13.94-1.36-1.836-4.316-2.679-4.225-5.491 .603-.102.712-.696 1.268-.846 6.276,3.863 8.567,11.711 10.139,20.277 1.69-1.422 2.071-3.864 2.535-5.491 .589-2.07.642-4.335 1.689-6.337 1.163-2.221 3.235-4.376 4.647-6.759 1.42-2.397 2.849-4.746 4.225-7.182 3.032-5.367 8.614-11.355 8.871-16.897-5.679,4.737-9.837,10.999-16.895,14.36zm332.039-171.933c-3.31,3.043-7.46,6.867-8.871,10.983 1.551-.271 2.525-1.943 3.38-2.957 3.023-3.589 5.559-7.126 9.716-9.294 .061-.499.752-.958 0-1.267-1.59,1.3-2.94,1.353-4.225,2.535zm-7.603,17.743c1.717-2.085 3.07-4.534 4.646-6.759 1.845.577.899-1.636 2.535-1.268 3.373-4.794 8.616-7.718 13.94-10.561-.048-.516-.126-1-.845-.845-2.795,2.489-8.494,3.408-10.983,5.492-2.668,2.233-5.306,5.829-7.182,8.449-1.9,2.653-5.645,6.248-4.647,9.293 2.406.293 2.374-1.851 2.536-3.801zm27.881-17.743c-.089.474-.469.658-.845.845-1.333-.207-1.492.761-2.957.422-4.863,3.534-10.485,5.693-14.363,10.139-1.549,1.776-2.999,4.241-4.225,6.337-1.304,2.229-3.085,4.767-3.379,7.604 4.106-.393 4.328-5.082 5.914-7.604 .676-1.075 1.956-2.574 2.957-3.802 5.288-6.493 11.832-10.888 20.699-13.518-1.538.13-2.749-.068-3.801-.423zm-59.142,15.208c-1.52-2.937-3.706-5.223-5.914-7.182-2.368-5.333-10.232-7.18-16.898-4.647-11.862,8.34-8.694,30.329-2.957,40.132 2.451,4.188 5.628,7.102 8.026,10.139 2.717,3.439 2.296,10.655 5.914,12.673 3.483-1.981 6.698.361 10.139.845 1.276-2.386 2.745-4.577 2.535-8.448-3.386.287-5.673-1.608-8.449-.423-.639-1.051-1.448-1.932-2.957-2.112-3.911-6.086-10.258-9.737-12.673-17.32-1.3.905-4.07,1.487-3.802-1.267 1.276-1.517 3.964-.973 5.914-.846 5.244-2.359 9.633-5.575 16.053-6.759 .106-7.429-5.272-9.373-8.026-13.94-1.27-.702-3.112-.83-2.535-3.379 4.396.566 6.21,5.855 9.294,6.336 1.062-6.976-3.589-8.239-5.492-12.251 2.843.418 6.974,4.7 7.604,7.604 1.165,5.361-.223,9.999 2.112,13.096 2.262,3.001 4.995,1.406 6.337,5.069-2.369.978-4.507-1.6-6.76-2.112 .799,2.018 1.424,4.209 2.535,5.914 2.921-1.303 7.009-1.439 9.294-3.38-.332-1.739.648-2.168.422-3.802 1.411-2.659 3.062-5.328 4.646-8.026 1.615-2.75 3.944-5.835 3.803-8.449 .071.916-1.499.191-2.112.422-.442,1.388-.202,3.459-.845,4.647-11.587.714-11.069-16.381-21.122-13.096 2.135.822 3.214,2.701 4.646,4.225 .222,4.1 6.263,6.561 3.38,10.983-1.755-.903-1.366-3.203-2.112-4.646zm22.39-10.139c.517,1.925-1.159,1.657-.846,3.379 2.471-.627 3.728-2.469 5.069-4.225-2.135-.444-2.416.964-4.223.846zm62.521,27.881c1.116-7.009-1.287-13.074-2.535-19.01-1.41-.702-2.451-1.773-2.534-3.802-2.65-1.352-4.49-4.105-6.76-5.069-6.504-2.764-18.282,1.032-22.812,4.646-3.367,2.688-5.016,6.78-7.182,10.139-1.39,2.154-3.907,3.379-3.38,5.914 2.123.835 5.199.716 7.604,1.268 1.269,1.266 1.436,3.635 2.957,4.646 2.164-3.891 7.352-8.36 11.406-10.139 5.989-2.626 11.753,1.377 13.096,5.915 1.637,5.533-.511,15.131-1.268,18.165-.451,1.807-.413,3.807-.845,5.491-1.181,4.611-4.892,8.06-4.647,11.406 2.137-2.229 5.989-2.741 8.449-4.647-.927-11.77 5.683-18.255 15.208-18.164-.513,2.443-3.832,2.082-5.914,2.957-3.258,3.191-6.414,5.627-7.182,10.561-.694,4.459.744,8.044 1.268,10.562 .385,1.852-.312,3.99 0,5.914 .228,1.402 1.186,2.795 1.689,4.646 2.715,9.982 6.089,23.315 8.871,34.218 4.456,2.162 9.062,4.175 13.096,6.76-1.547-7.206-3.584-15.469-5.491-22.812-.365-1.404-.102-2.894-.423-4.225-.384-1.59-1.555-3.029-2.112-4.646-.742-2.154-.694-4.21-1.268-6.337-2.133-7.917-7.674-19.644-2.534-26.613 2.77-3.757 8.153-3.259 12.251-5.915-.043-1.31.517-2.018.845-2.957-4.431-3.875-12.273-5.887-19.01-5.069-.97.439.2,3.017-.845,3.38-2.073-.321-1.766-3.021-2.535-4.646 .074-1.619 2.719-.666 2.537-2.537zm20.699-2.534c1.438-7.2-13.056-8.994-10.983,1.267 3.464,1.739 10.114,3.087 10.983-1.267zm-483.697,19.854c2.312-1.068 3.853-2.906 5.492-4.646 1.348-.362 1.307.664 2.112.845 3.358-1.43 2.342-7.233 7.604-6.759 .567.277.787.902.845,1.689 2.332-1.329 5.364-1.958 7.182-3.802-1.98-4.639-4.455-8.782-8.449-11.406-11.89-.492-21.953,1.166-26.191,9.294 5.51.946 6.521-4.747 10.983-1.268 1.974-.138 1.828-2.396 3.802-2.535 1.85,3.363-4.592,5.076-6.336,2.535-2.402,1.54-4.099,3.787-8.872,2.957 .06,4.023.912,7.256 2.958,9.294 2.445-1.356 5.541-2.063 9.716-1.69-.367,1.635 1.032,1.503 1.268,2.535-.267,1.163-2.893,2.15-2.114,2.957zm408.08-19.432c1.12.007 2.487-.234 2.535.845-.456,1.234-2.012,1.368-3.803,1.268 .118-.963-.102-1.588-.845-1.689-.277,1.265-.903-.404-1.689,0-1.767,1.867-1.209,5.08 0,7.182 2.013.239 2.608,1.896 4.225,2.534 4.122-1.106 9.197,1.331 11.405-1.689-1.038-2.463-3.966,1.553-5.069-.845 1.285-4.618 8.712-.822 7.182,2.534 2.605-.21 2.12-3.512 3.802-4.646-.607-.935-1.03.531-1.267-.423-.063-4.724-4.794-4.781-8.449-5.914-.349-1.193.596-1.094.423-2.112-2.878-.687-6.533,1.293-8.45,2.955zm16.476,0c-.061-2.343-4.194-2.834-5.914-2.112 2.559.116 3.561,1.789 5.914,2.112zm-34.641,7.604c3.868.355 7.898.551 12.251.422-.185-1.076-.306-5.51-.845-7.604-4.207,1.99-12.926-.534-11.406,7.182zm-29.148,4.225c2.833,5.052 5.793,9.979 10.983,12.673-.478-6.116-.885-14.663 2.957-17.742-1.74-1.218-1.721-4.193-3.802-5.069-4.745,2.013-8.335,5.182-10.138,10.138zm-117.017-9.294c-3.076-.008-6.134-.566-9.294-.423-3.396.154-7.047.873-10.561.845-1.01-.008-1.812-.859-2.958-.845-1.181.016-2.312.868-3.379.845-5.41-.118-11.369-2.361-15.63,1.69 1.001,2.847-.115,5.677 0,8.871 9.706-.486 18.481.274 27.458-.423-.397-3.976 2.286-7.649 6.337-6.759 3.311.728 2.084,3.983 4.225,6.337 6.48.654 14.5.614 21.122.422 28.154-.814 60.876-1.103 88.713-.422-1.626-2.739-2.105-6.625-3.38-9.717-33.236-.182-69.001-.335-102.653-.421zm187.142,5.491c-1.193-.349-1.094.596-2.112.423-.889,1.927-2.316,3.315-2.534,5.914-.681.868-2.282.815-2.112,2.535 2.553.043 3.905-2.332 5.069-3.803 1.32-1.668 2.044-3.889 4.225-4.646 .072-.632-.151-1.56.423-1.689 1.295.41 4.707.903 5.914,0-1.259-.009-.542-1.993-1.268-2.535-1.36-.093-1.787.747-3.38.423-.507-.901-.516-2.301-1.689-2.535-1.104,1.897-.218,4.581-2.536,5.913zm10.138.846c.756-1.098 2.417-1.748 3.38-.423-.73-.959.163-3.542-1.268-3.802 .042,1.886-3.751,2.143-2.112,4.225zm-65.9.845c-.957,3.831-.163,9.413-.423,13.94 7.572.123 16.209.218 23.234.422 2.339.068 6.004,1.282 5.914-.845-2.696-2.811-8.957-.416-12.673-1.267-1.423-.326-2.809-1.077-3.38-2.112-.203-2.958.951-5.08 0-7.604 3.89-3.026 12.929,1.19 16.897-2.112-10.4-.783-20.699-.663-29.569-.422zm60.831,16.474c2.498-4.116 6.195-15.079-.422-15.208-2.969-.057-4.311,3.359-5.914,5.492-1.248,1.66-3.092,3.198-3.38,3.802-1.934,4.057-1.123,8.316-2.112,12.251 .902,1.492 3.136,1.652 5.069,2.112 1.603-3.154 4.594-4.881 6.759-8.449zm-423.71-13.517c1.353.195 1.489,1.608 2.957,1.689 .452-1.578-1.049-1.204-.845-2.534-1.048-.063-2.05-.079-2.112.845zm397.941,1.266c-1.482,3.023-3.165,5.848-2.957,10.562-.263,1.146-1.765,1.052-1.689,2.534 .177,4.262-1.987,6.181-1.268,10.984 1.331,1.062 2.711,2.076 2.112,5.069 2.425-.33 4.703-1.327 7.182-.423 1.426-1.595.294-3.227.422-5.069 .392-5.649 1.689-10.604 2.957-14.785 .668-2.204 1.141-4.523 1.69-5.914 .707-1.793 2.983-3.013 2.111-5.069-3.673.624-6.582,3.048-10.56,2.111zm73.083,1.268c-3.214,2.914-8.205,2.396-10.984,5.069-5.105,4.912-.997,16.626.423,21.967 1.415,5.32 3.353,10.309 4.646,14.786 .208.718-.219,1.636 0,2.534 .554,2.269 2.227,4.53 2.535,6.76 .182,1.312-.25,2.569 0,3.802 .514,2.53 1.987,5.123 2.534,7.604 .865,3.921.398,8.276 4.225,9.717-5.1-20.106-11.461-38.951-16.053-59.564 1.969-2.442 1.837-5.062 4.225-7.182 3.064-2.721 8.141-3.253 10.983-5.069 3.813,15.795 9.582,31.812 14.363,47.313 .719,2.331 1.464,4.482 2.112,6.759 4.487,15.766 8.677,31.559 13.096,46.469 1.386,4.677 2.717,9.677 4.225,13.519 .479,1.224.243,4.154 2.534,3.802-4.77-17.901-11.386-33.957-15.208-52.806-2.106-4.625-3.443-10.002-5.069-15.208-4.986-15.968-9.369-33.139-15.208-48.158 .165-1.976.258-1.403.423-3.38-1.111-.578-1.602-1.777-2.957-2.111-.577.829-.403,2.41-.845,3.377zm-45.202,17.32c3.231-5.176 8.044-11.973 5.492-20.277-.903,3.274-2.86,5.277-2.535,8.449 .167,1.623 1.184,1.988.845,3.379-.584,2.404-2.631,2.598-4.224,4.647 .257,1.517.273,3.273.422,3.802zm-34.639-12.673c2.215-.091 2.213-5.269.845-6.337-1.657,1.313-2.107,4.241-.845,6.337zm-7.182,0c2.809-.711 3.272-2.68 2.534-5.069-.991-.417-2.075-.741-3.379-.846-.131,1.657-1.285,4.616.845,5.915zm-449.48-5.069c-2.954.013-6.706-.01-9.716,0 .533,4.055 5.923,1.818 9.293,2.112 2.48.215 5.669,1.425 6.759-.423-.296-2.866-4.088-1.699-6.336-1.689zm295.71,0c.228,1.804 2.143,3.458 3.38,4.646 7.839,7.53 15.928,14.335 23.656,21.545 3.035,2.831 5.576,7.283 10.139,8.026-.312-5.906 3.25-10.15 4.647-14.786 .698-2.315-.231-5.121 2.112-6.759 2.99.248 5.477,1.001 6.759,2.957-3.533,2.804-3.237,9.437-6.337,12.674 1.172,3.888-1.134,10.078-.845,13.096 3.147,2.641 5.999,5.932 9.294,9.293 3.86,3.939 9,8.002 8.871,14.786 1.188,1.346 3.319,1.75 3.802,3.802 .314,1.301-1.159.812-.845,2.112 1.898,3.358.445,7.924 2.112,10.561 3.99-.041 5.104-1.018 7.182-2.534 3.04-2.219 5.895-3.831 8.026-6.337-.664-4.688-2.418-8.284-3.38-12.673-3.85-1.112-7.187-4.879-11.405-4.225-.258,1.947 3.63-.251 2.957,2.112 .063,1.049-.219,1.753-.845,2.112-1.455.574-4.701-.24-5.915-1.268-.134-2.347 2.234-3.136 1.268-5.069-2.723.088-5.671,2.752-7.604,0 1.034-2.767.879-6.725 2.957-8.449 1.806.024 3.094.567 4.646.846 1.423,4.632 7.05,5.061 10.983,7.182 .235-4.038-2.396-5.209-4.225-7.182 1.833-2.574 2.644-8.285 6.337-7.604 .02,6.31 1.587,11.394 3.38,16.897 5.221,2.102 8.864,5.78 13.518,8.449 1.182-1.072 2.611-1.896 3.38-3.38-1.35-3.792-2.528-9.556-.845-13.94 3.856-.125 2.305-3.565 5.069-3.802 2.899-.248 2.298,3.77 6.337,3.38 1.391-1.003.678-4.109.845-6.337 2.382-1.421 3.213-4.392 4.646-6.759 1.638-.475 2.939-1.286 4.647-1.69 .456-3.768 1.592-6.856 3.379-9.294-3.862-2.333-5.546-6.846-5.914-12.673-2.837-3.077-5.314-6.514-7.604-10.139-35.313.41-78.016-.439-108.565.424zm-310.072,0c-4.909-1.604-4.124,4.516-3.379,7.182 2.07-.36 5.012-1.016 6.759-.423 .609-1.248-1.516-2.833-2.957-3.38-1.295.051-3.69,2.035-3.802-.422 1.72-.251 3.75-.193 4.646-1.268-.618-.367-1.339-.632-1.267-1.689zm307.115,1.689c-1.184.225-2.196.62-3.38.845 .021-1.429-.983-1.833-1.689-2.534-13.071.615-19.736.976-33.795.845-1.718,5.463-5.264,9.099-8.449,13.096 .569,3.104-.706,4.363-1.268,6.337 1.113,3.267 1.931,6.021 2.112,9.293 .157,2.825-1.01,5.41-.845,8.026s1.888,6.015 2.957,8.872c3.267,8.726 6.117,18.442 5.914,30.415 .295,1.845-1.219,1.879-1.267,3.38 22.542-.378 46.499-.244 71.815,0 2.778-12.893 4.965-27.212 6.76-40.977-12.431-13.057-26.488-24.487-38.865-37.598zm-299.089,1.69c.668,4.727 8.101,3.335 12.673,2.957v-2.957c-4.682.251-8.99-.44-12.673,0zm541.572,1.69c10.411,35.071 21.461,69.504 31.683,104.766 .605.913-.367,3.072-.422,4.646 1.507.465 2.146,1.797 3.802,2.112-10.522-37.275-20.854-72.853-32.528-109.412-1.129-.42.561-3.658-1.267-3.38h-.846c-.024.541-.541.586-.422,1.268zm-4.225,1.69c2.274,4.014 3.335,8.628 4.646,13.096 1.335,4.548 3.422,8.915 4.647,13.519 .236.889-.196,1.946 0,2.957 .674,3.474 2.706,7.09 3.802,10.561 2.593,8.211 4.186,15.269 6.337,22.39 1.141,3.776 2.786,7.309 3.802,10.983 .646,2.336.573,4.818 1.268,7.182 .155.528 1.081,2.252 1.267,2.957 1.541,5.825 3.851,11.12 5.069,16.476 .389,1.707-1.028,4.539 2.112,5.069-9.047-36.717-20.482-71.047-31.261-106.033-.093-.329-.354-.491-.845-.423-.037.664-1.076.329-.844,1.266zm-541.149.844c-2.54-.34-8.242.066-8.027,2.957 3.368.9 10.384.26 13.096.423-.66-1.353-2.444-3.028-5.069-3.38zm8.871.423c.757,2.875 6.454,1.63 7.604,0-2.559-1.042-5.688-.006-7.604,0zm529.321,1.267c3.803,7.293 5.458,17.087 8.026,25.77 1.192,4.029 3.538,7.381 2.534,10.983 1.63,1.397 2.402,3.59 2.957,5.492 1.555,5.325 2.883,11.672 4.225,16.053 1.441,4.704 3.081,9.632 3.38,14.785 1.447.12 1.722,3.604 3.38,2.112-8.029-25.062-15.052-51.132-22.812-76.462-.54-.023-.585-.542-1.268-.423-.133.572-.601.807-.422,1.69zm-478.205,6.337c5.396.16 3.006-6.446-.423-6.759-.036,2.431-.091,4.879.423,6.759zm143.208,14.363c-6.233,2.996-7.949,10.448-10.561,17.32-2.143,5.637-5.466,11.09-5.915,16.897 2.296,4.041 3.139,9.535 2.958,16.053 25.138-.177 47.621-.196 72.237,0-1.264-2.472.035-4.894 0-7.182-.071-4.662-1.391-10.356-2.112-13.518-1.154-5.062-1.479-8.504-2.958-12.674-1.284-3.622-3.197-6.749-3.379-9.294-.148-2.069.713-3.872.845-5.914 .25-3.859-.308-7.234-1.689-10.983-5.318-.153-12.028,2.669-19.01,2.957-9.171.379-19.144-2.992-22.812-7.182-1.512-1.726-1.098-3.994-3.38-5.491-1.573,6.509-5.018,11.246-4.224,19.011zm-191.789-16.476c-4.355-2.776-13.786-.995-21.122-.845-.178,2.29 1.899,2.325 2.112,4.225-.582,1.838.127,2.354 0,4.646 9.086-.188 16.719-.762 23.657,0 .363-1.759.511-2.317 0-4.224-4.731,1.287-9.651.188-14.363,0-3.72-.149-7.464.94-8.871-.846 4.999-.979 13.125-.133 18.587-.422 1.813-.097 5.195,1.008 5.069-1.69-.644-1.326-3.239-.702-5.069-.844zm438.495,4.225c-.905-.783-2.25-1.129-3.802-1.268v2.957c2.072.463 3.571-.258 5.069,1.268 3.353-2.082 8.045-.592 13.096-1.268 .317-5.265-5.881-3.7-8.871-2.534v-3.38c-1.36.093-1.787-.747-3.38-.422 .386,2.638-.993,3.513-2.112,4.647zm89.981,8.871c3.272,11.43 6.265,22.773 9.717,33.373 .691,2.126 1.514,4.217 2.111,6.337 1.097,3.888.488,8.028 3.803,10.983-.104-3.416-1.83-5.21-1.69-8.871-2.106-4.592-3.278-9.92-4.646-15.208-1.362-5.264-3.916-10.467-3.802-15.631-2.58-3.129-2.99-7.592-4.225-11.828-1.196-4.107-2.646-8.327-3.802-12.251-.024-.258-.063-.5-.423-.422-.585,5.369 1.666,9.007 2.957,13.518zm-471.869-10.983c-.112,2.083 2.431,1.512 3.802,2.112 .719-2.584-2.289-3.101-3.802-2.112zm445.255,2.535c-1.681,1.907-3.293,1.979-5.915,3.379-6.199,4.622-8.55,14.21-6.336,24.925 1.573,1.306 4.503-.641 5.069,2.111-5.229.46-10.571.029-17.743,0 1.904,5.137 4.355,9.727 7.182,13.941 5.223-1.959 11.608-2.755 19.01-2.535 .879-3.204.069-8.098.845-11.406-2.517-.721-5.782-.694-8.026-1.689 .309-1.998-.603-2.777-1.267-3.802-1.659-.312-4.834.892-4.647-1.268 .095-1.313 2.103-.714 3.38-.845 .062-1.611-1.063-2.034-1.268-3.38 1.499-9.062 6.678-14.444 15.631-16.053 .733-2.393-.42-4.747-1.69-6.336 .241,2.637-1.919,2.87-4.225,2.958zm-167.288,8.871c1.776,4.177-.52,7.92-.845,11.406-1.78,19.098-8.002,36.988-8.871,53.649-.671,1.02-1.864,1.516-2.534,2.535 .839,3.662-2.703,5.174-1.69,7.604 .861-.969 3.509-.152 5.069-.422 .597-1.798 1.743-3.045 2.112-5.069-.015-1.816-2.244-1.417-1.689-3.802 2.213-15.107 5.504-31.059 8.448-46.469 .443-2.32.934-4.858 1.268-7.182 .558-3.878.267-8.054 1.268-11.829 .937-3.534 4.531-6.883 3.802-10.983-1.018.173-.918-.771-2.112-.422-.636,4.434-2.092,8.048-4.226,10.984zm136.872,8.448c-.258-.023-.5-.062-.423-.422 .023-.54.542-.585.423-1.268 8.239-1.194 12.316-6.553 15.63-12.673-1.668.541-1.022-1.231-2.112-1.268-1.739,2.344-2.369,5.798-5.491,6.759-1.796-.316-.918-3.306-3.38-2.957 .188,1.361.81,2.289.845,3.802-1.534,3.066-5.146,1.721-7.182,0-1.033.375-.457,2.359-2.112,2.112 1.344,1.62 1.925,6.235 3.802,5.915zm-29.994-9.293c-2.644-.263-3.998.599-5.914,0-.466,1.278-.8,4.277 0,5.491 2.749-.094 6.056-1.105 7.182.845 .452,1.578-1.049,1.204-.845,2.535 1.343-.321 5.003.958 6.759,0-1.396-.717-3.753-.472-3.802-2.535 4.036-.799 7.494.162 11.828,0 .604-1.758-.227-4.523-.845-6.336-4.146,1.408-7.273-.93-10.983-1.268-.086-1.322.285-3.102-.423-3.802-2.757.31-3.595,2.441-2.957,5.07zm-24.924.422c-.438,1.598.311,3.272 0,5.492 4.786.705 7.344,3.64 11.406,5.069 .458-3.689.221-9.425.422-13.519-4.647-2.059-10.411-2.196-11.828,2.958zm-435.115-3.379c-.577.831-.403,2.412-.845,3.379 8.889-1.049 15.341-.562 24.502,0v-3.802c-6.271.35-16.305.49-23.657.423zm522.139,3.802c1.705.676 3.582,1.015 5.491.422 .249-1.516-.49-2.043-.845-2.957-2.617-.224-3.456,1.331-4.646,2.535zm-522.985.422c-1.6,1.896-2.821.641-5.069.846-4.634.421-11.532.954-16.476.845-3.481-.077-7.468-2.029-8.871.845 8.772,1.017 20.699.534 29.993-.423 .572.414.547,1.425 1.268,1.69 7.617.627 16.523-.7 23.657-.423v-2.957c-9.156-.95-15.865.554-24.502-.423zm484.542,2.535c-1.973-1.006-3.741.384-6.337,0-1.802,5.715 1.622,9.562 4.225,12.251 1.763-.631 2.646-2.143 5.492-1.689 .702,1.409.424,3.799 1.267,5.068 1.015.358 1.119.271 2.957.423-.308-5.908-6.162-9.875-7.604-16.053zm41.4.423c-2.236.861-6.256-.061-5.914,3.379h6.337c.369-.42 1.174-3.658-.423-3.379zm-512.845,2.111c-1.221.067-2.69-.184-3.802,0-.952.158-1.602.803-2.535.846-2.185.099-6.736-2.162-6.759,1.689 6.357.705 16.579.384 24.502.845v-2.957c-3.275-1.737-8.255-.596-11.406-.423zm478.627,6.337c.534,2.704 2.75,3.728 2.957,6.759 1.793.104 2.274-1.104 4.225-.845-.108-5.121 4.346-3.295 6.759-5.491-.362-2.807.512-5.833-.845-6.76-2.833,3.423-7.074,7.489-13.096,6.337zm-63.366-.845c2.785,1.251.038,5.482 2.957,6.337 .194-3.607 1.635-5.97 1.268-10.139-2.461.215-3.652,1.701-4.225,3.802zm6.336,8.45c2.135-.964-.398-6.596 1.69-7.604 1.755-.234 4.388-.571 5.914-2.112-2.289-1.09-4.58-2.179-7.604-2.534 .278,4.245-2.931,9.828 0,12.25zm-423.287-9.294c-3.354-.286-7.665-.012-10.139,0h-1.268c.858,4.016-.956,4.802-1.689,8.026 8.021-1.858 18.36.011 26.191-.845 .148-4.101-4.605-2.783-7.604-2.957-5.112-.297-11.909-.332-16.053-.845 .917-1.694 2.316-.354 3.802-.423 6.504-.305 13.632-.197 19.855,0 .092-5.087-8.004-2.523-13.095-2.956zm449.056,7.603c2.002.312 2.904-.475 4.646-.422-.181-2.512 1.978-2.788 1.268-6.76-.8-.749-2.79-.308-4.225-.422-.044,2.161-.011,5.252-1.689,7.604zm-20.7-3.379c1.072.758-.258,3.919 1.268,4.224 .753-1.641 3.25-1.537 5.492-1.689 .582.545.418,1.835.422,2.957 2.123-.493 3.831.931 5.069,0-1.057-3.026-3.81-4.357-5.069-7.182-2.705.603-5.372-.349-7.182,1.69zm-255.578,3.802c1.675-.156 4.048.387 5.069-.423-.676-1.576-.443-4.062-2.535-4.224-1.133,1.259-1.897,2.889-2.534,4.647zm318.945.845c.934.885 2.812.331 3.379-.423 .3-1.566-.722-1.812-.422-3.379-2.784-.53-2.331,2.175-2.957,3.802zm-48.159-.845c.809.395 2.998-.75 3.38-2.112-1.487-1.074-4.12-.374-3.38,2.112zm-366.68-2.112c-2.123,4.591-4.921,9.942-3.38,14.785-7.691,7.808-10.26,15.757-11.406,29.571-.502,1.328-1.588,2.073-1.69,3.802 4.153,1.479 6.613,4.652 11.406,5.492 .582-.545.418-1.835.422-2.957 5.298-4.841 7.08-13.198 11.406-19.01-.035-2.992 1.647-4.268 1.268-7.604-1.556-1.441-4.733-.499-6.759,0-2.104-1.625-2.825-5.615 0-7.182 1.332.076 1.427,1.39 1.267,2.957 2.522-.203 3.997,1.706 6.337.423 1.529-5.23 3.002-10.516 5.492-14.786-4.976-1.642-8.356-4.88-14.363-5.491zm-101.386,2.957h7.182c-1.294-1.599-6.382-2.449-7.182,0zm364.145,33.796c3.232,1.519 11.521-1.451 13.94,1.689 .647-1.198 1.161-2.78.423-4.225 2.901-1.522 2.886-4.742 2.112-8.026 .819-1.997 1.95-3.683 4.225-4.225v-4.646c-5.313-4.826-9.871-10.407-15.208-15.208-2.312,11.336-3.786,22.105-5.492,34.641zm-332.885-33.796c-5.546.111-11.939-.487-15.63.423-1.191.293-3.193-.01-3.379,1.267 .472,1.773 3.014,1.636 4.647,1.69 4.227.141 10.062-.967 14.786-.846 2.458.063 6.012,1.72 5.914-1.689-1.287-1.972-3.865-.895-6.338-.845zm442.72.844c.249,3.064-.675,4.958-1.689,6.76h8.026c.897-1.778.205-5.146.423-7.604-2.071.464-4.835.235-6.76.844zm11.406,10.139c6.762.356 16.739.564 25.347.423-.987-3.379-2.296-6.435-4.225-8.872-7.966.005-13.477-.123-21.122,0-1.217-.05-.733-1.801-2.112-1.689-2.324,3.399-.03,8.494 2.112,10.138zm-370.059-1.267c7.036-1.516 13.601.185 21.122,1.268-.916-3.085-5.03-2.424-8.026-3.379-.55-.176-.741-1.058-1.268-1.268-2.404-.961-4.824-1.337-6.759-2.535-.478-.931-.486-2.33-1.69-2.534-.836,3.106-3.369,4.516-3.379,8.448zm422.442,4.224c2.254-.142 3.699.525 5.492.845-.008-1.822-2.104-1.557-2.112-3.379 .438-2.597 1.07-7.78-.423-9.717-4.63-.097-1.137,8.556-2.957,12.251zm-110.679-11.406c-.525,2.38-1.335,5.948-.423,8.449 2.373.651 4.841.572 7.182.423 2.264-.146 4.545-1.166 6.759-1.268 7.709-.353 16.115,1.132 24.925.423 .854-1.259 2.498-1.728 3.802-2.535 .299-2.271-.334-3.608-.845-5.069-13.923-.602-25.215,0-41.4-.423zm-395.83,1.268c-3.861.017-7.928.573-12.25.845-2.076.131-4.768-.829-6.337.846 .415,2.167 3.468,1.193 5.492,1.267 4.736.173 9.618.157 13.941,0 1.957-.071 5.591,1.022 5.492-1.689-.984-2.249-4.275-1.278-6.338-1.269zm.846,3.802c-6.073.271-13.402,1.572-19.433.422v2.535c3.04,1.402 8.743-.215 13.941,0 4.71.193 9.818,1.581 10.983-1.69-.94-1.772-3.56-1.354-5.491-1.267zm437.651,3.379c-.992.135-.946,1.308-1.69,1.689 .535,5.896-1.057,11.409 0,16.476 3.647-.718 8.402-.328 12.674-.422 2.982-4.884.905-10.836 1.689-17.32-4.615.249-7.991-.74-12.673-.423zm-24.502,5.069c3.248,2.925 12.253,1.948 16.897,2.112 1.09-1.445 1.812-3.258 2.112-5.492-6.1-.263-17.568-2.407-19.009,3.38zm-378.087.423c-2.402-.766-5.296-2.084-7.604-2.535-1.272-.248-3.115.241-4.646,0-2.345-.369-3.128-1.274-5.069-.845-5.005,1.108-9.473.849-13.519,1.689-4.408.917-8.197,2.05-12.25,3.803-7.319,3.163-16.02,9.322-20.277,15.208-4.786,6.615-8.61,12.222-10.983,21.122-.937,3.51-1.492,6.114-2.112,10.139-.514,3.332-1.062,5.834-.845,9.293 .261,4.17 1.732,13.215 3.379,16.898 1.655,3.7 2.959,7.182 4.647,10.139 1.799,3.152 5.049,7.965 7.181,10.138 .985,1.004 2.541,1.375 3.802,2.535 1.115,1.025 1.854,2.841 2.957,3.802 2.265,1.974 5.944,3.816 8.871,5.492 4.704,2.691 8.026,4.269 12.673,5.491 5.569,1.466 14.846,2.84 21.545,2.112 2.628-.285 7.198-2.038 9.293-2.534 4.492-1.064 7.323-1.816 10.561-3.38 9.408-4.543 16.576-11.043 21.967-18.587 5.2-7.276 9.742-17.099 10.983-28.304 .196-1.772 1.435-5.75-2.112-6.337-1.229,2.41-.106,4.346-.422,7.182-.671,6.017-2.928,12.242-5.492,17.32-9.167,18.15-27.73,32.93-51.96,32.105-29.258-.996-53.453-23.632-55.763-54.073-.803-10.582 2.733-19.104 5.915-26.191 5.312-11.834 14.727-21.004 26.191-26.613 6.34-3.103 14.302-5.254 22.389-5.492 12.774-.377 23.86,3.579 32.106,8.449 1.808,1.067 4.452,2.472 4.647,4.646-9.002-4.884-15.634-10.026-26.614-11.406-14.611-1.836-26.142,1.281-35.908,7.182-9.836,5.944-17.073,13.681-21.544,23.657-3.368,7.515-5.717,15.603-5.492,24.924 .487,20.113 12.925,36.872 26.191,45.201 1.637,1.028 3.507,2.216 5.069,2.957 15.187,7.208 36.814,6.403 50.693-1.267 3.617-1.999 6.699-4.914 9.293-7.182 1.042-.91 2.626-1.359 3.379-2.112 2.232-2.232 4.471-5.616 6.337-8.449 4.18-6.347 6.353-11.553 8.026-19.854 .592-2.936 2.963-7.926-.422-10.562-1.2,19.902-8.807,33.711-21.967,43.09-5.254,3.744-11.521,7.138-18.165,8.871-5.822,1.519-12.995,1.219-17.742.845-1.68-.132-3.557.249-5.069,0-12.832-2.112-20.534-9.067-29.994-16.053-4.837-7.096-9.969-14.06-12.251-23.234-2.968-11.934-1.25-25.657 3.38-35.485 9.524-20.223 33.002-37.239 62.521-29.57 7.819,2.031 14.441,6.884 19.854,10.561 .912.619 1.828,1.916 2.957.845 .023-1.948-.187-4.13.423-5.491-5.466-4.117-11.745-7.826-19.008-10.14zm417.797-3.38c-.914,1.794-.046,4.987.422,6.759 2.709-.758 5.913-.908 8.449,0 2.018-.191 8.449-1.315 10.983-.845 1.061.197 1.091,1.493 1.689,1.268 1.651-2.011 5.778-1.544 7.182-3.802-.185-1.787-1.554-2.39-2.112-3.803-9.089,1.033-18.807-.018-26.613.423zm-56.186,2.113v8.026c3.027.522 7.05-.963 10.562-1.268 2.021-.175 4.408,1.089 5.491-.845-.992-1.912-4.367-2.915-2.534-6.337-3.519-1.481-10.572-1.947-13.519.424zm-414.416,1.689c-.917,1.008-1.735,2.583-.845,4.225 1.795.24 3-1.407 4.224-2.112 1.244-.716 3.269-.966 3.802-2.534-2.85-.317-4.389.679-7.181.421zm574.944,53.229c.343,6.88-1.39,15.31-1.268,19.432 .018.592-.736.508-.845.845-7.743,24.064-29.645,43.735-61.254,39.71-6.11-.778-12.105-3.152-16.053-5.069-1.676-.813-3.656-1.208-5.069-2.112-.708-.452-1.229-1.503-2.112-2.112-.822-.565-2.251-.725-2.957-1.267-.83-.639-1.22-1.461-2.112-2.112-4.636-3.386-9.323-8.318-12.673-13.941-2.778-4.662-5.43-10.284-6.76-15.63-1.666-6.696-2.316-15.761-.845-23.657 .4-2.147 1.771-4.78 2.535-7.181 6.396-20.114 23.803-34.876 44.778-38.021 4.458-.668 9.099-.746 13.096-.422 12.609,1.021 23.307,6.556 31.684,13.518 .974.81 6.137,5.388 5.069,3.802-8.438-8.733-20.596-17.102-35.485-19.01-13.252-1.698-25.62,3.079-37.598,7.182-1.669,1.738-3.659,3.063-5.491,4.647-.899.776-1.594,1.741-2.535,2.534-.912.769-2.112.923-2.957,1.689-4.496,4.083-9.034,10.549-11.406,16.053-.724,1.68-1.595,3.574-2.112,5.069-6.521,18.854-.482,41.933 8.449,52.806 1.805,2.197 2.963,4.164 4.647,5.914 2.339,2.433 5.272,4.268 6.759,7.182 2.441.43 4.271,2.511 6.337,3.802 8.381,5.24 21.344,9.229 35.062,8.026 32.065-2.809 55.381-30.588 52.805-63.788-.166-2.15.853-5.951-2.534-6.337-.094,2.952.71,5.724.845,8.448zm-174.891-46.047c.732-.817 1.893-1.206 2.535-2.112-.727-2.371-3.277-2.919-5.069-4.225-.758,2.149.841,5.265 2.534,6.337zm9.717-5.069c-3.612,3.711-8.629,6.016-11.828,10.139 1.798,1.019 6.838-1.261 8.448.845-1.58,3.349-9.087.77-11.828,2.957-2.011,4.62-4.333,4.948-9.716,5.069-3.631.082-6.742-.542-7.604,2.112 4.127,1.49 8.678-2.173 12.251.423-.426,2.813-4.2,2.277-3.802,5.914 3.971.958 9.695.161 14.362.423 1.062-4.168-.072-7.939 1.69-11.406 1.363-.608 3.134-.809 4.646-1.268 .173-2.927 2.993-4.457 3.802-7.182 .674-2.27.104-4.748.846-7.604-.54-.023-.586-.542-1.267-.422zm-312.186,1.69c.134,7.598-3.937,10.989-5.915,16.475 6.456-.999 9.746,6.765 15.63,6.337-.589,2.917 4.658,3.454 4.647,7.182 1.572-4.709 5.811-7.824 8.026-12.251 1.157-2.312 1.821-4.761 2.957-7.182 1.081-2.303 2.276-4.597 2.957-7.182-7.611-4.645-18.503-4.681-28.302-3.379zm387.803,10.983c-8.328,6.718-15.032,14.931-18.588,25.769-.699,2.132-1.681,4.738-2.112,7.182-3.828,21.684 5.976,39.791 17.32,49.849 8.689,7.702 20.563,13.891 34.218,14.785 24.202,1.586 42.539-13.002 51.116-28.727 2.001-3.67 3.277-6.646 4.224-10.561 .61-2.521 1.795-5.306 2.112-8.449 1.76-17.381-4.357-32.978-13.096-43.089-1.061-1.228-2.699-1.994-4.224-3.38-1.335-1.212-2.443-3.199-3.803-4.225-.67-.505-2.053-.674-2.957-1.267-.984-.646-1.63-1.576-2.534-2.112-8.602-5.103-20.339-7.974-31.261-7.182-14.273,1.036-22.162,4.749-30.415,11.407zm-425.4-4.647c-12.446-7.288-32.33-8.909-46.891-2.534-7.105,3.11-16.464,10.685-21.122,17.32-2.278,3.245-3.466,6.522-5.069,10.139-4.337,9.783-5.639,23.234-2.535,34.218 1.874,6.628 4.65,11.94 8.026,16.475 9.944,13.355 28.04,24.911 51.116,21.122 3.72-.61 8.397-2.117 12.25-3.802 6.301-2.754 11.37-6.677 15.63-10.983 3.633-3.672 5.504-6.159 8.027-10.562 3.071-5.358 6.166-12.861 6.759-19.432 .188-2.09.88-5.327-1.267-6.76-.684,13.962-5.323,23.967-11.406,32.528-9.264,8.639-22.335,17.911-38.865,17.32-2.682-.096-9.178-.661-11.406-1.268-20.371-5.544-37.077-21.226-39.287-44.356-1.243-13.008 3.285-24.269 8.026-30.838 .549-.762.73-1.795 1.267-2.535 6.702-9.237 18.1-17.646 30.416-19.854 17.208-3.086 32.315,2.538 41.399,9.294 .935.695 1.619,1.733 2.535,2.534 .218.19 1.664,2.441 2.535.845-1.572-4.044-6.288-6.616-10.138-8.871zm309.228-3.379c1.49,1.043 4.776,1.084 5.914-.423-.881-1.372-3.088-1.418-5.491-1.268 .094.799-.477.933-.423,1.691zm61.677.845c-11.574-.772-21.901,2.329-23.234,13.096-.65,1.603-2.765,1.741-2.957,3.802 3.581.844 8.806-.161 12.673-.423 .069-1.336-1.122-1.411-.845-2.957 2.087-4.189 4.356-8.14 9.716-8.448 .696-.04 2.225.771 2.958.845 4.836.479 10.311-.36 15.208-.845 .708-1.686 1.476-3.312 2.111-5.069-3.233-2.108-12.547-2.808-15.63-.001zm-364.146,12.673c-.98-.709-1.352-2.027-2.112-2.957-2.882-1.161-5.314-3.567-8.449-5.069-3.079-1.475-6.701-2.855-10.139-3.802-14.057-3.871-32.054.936-39.71,7.182-2.621,2.138-3.17,4.857-5.069,7.604-.995,1.439-2.743,2.388-3.802,3.802-1.836,2.453-3.191,6.137-4.647,9.294-4.016,8.713-5.454,20.387-3.379,29.994 4.054,18.773 20.087,33.338 39.287,35.907 16.047,2.147 31.02-4.21 39.709-12.251 6.5-6.015 12.493-15.935 13.941-24.924 .534-3.314.174-5.87.422-9.294-5.553-.343-10.107.312-13.518,2.112-1.196,14.882-8.896,24.767-19.433,29.571-21.942,10.004-49.744-5.141-50.693-30.839-.333-9.014 3.02-15.868 6.759-22.812 5.506-5.469 10.818-10.683 19.01-12.674 11.229-2.729 23.81.944 32.105,8.026 2.348,2.005 3.646,4.578 5.914,6.76 .96-2.561 1.752-5.289 3.379-7.182 .236-1.866-2.374-2.387-.845-4.225 1.583-1.274 1.6,1.84 3.38,1.689-.299-2.27.481-3.461.845-5.069-1.068.398-2.393.31-2.955-.843zm57.452-.845c3.125,1.1 5.58,2.869 7.604,5.069 2.189-3.865 2.614-9.495 3.802-14.363-2.027-.648-3.104-2.247-5.069-2.957-2.082,4.114-3.392,9-6.337,12.251zm348.938-11.828c-.941.748-1.546,1.833-2.957,2.112 .284,2.114-.392,3.27-.423,5.069 6.578.382 7.908-4.484 11.829-6.76-1.523-.322-5.27-.522-8.449-.421zm-103.498,3.801c-2.159,4.741-1.382,12.418-5.069,15.63-.557,1.31 1.252,2.344 0,2.958-8.543-.095-15.69,1.207-16.476,8.871 6.488-.271 14.066.548 19.854-.423 .295-4.104-.904-9.255 6.337-8.026 .452-.956.959-1.857 1.689-2.534-.037-1.43-1.072-1.979-1.267-3.38-.123-.882.258-1.731 0-2.535-.395-1.225-1.448-2.009-1.69-3.379-.371-2.107.448-4.566 0-7.182h-3.378zm-231.922,2.958c-1.964,1.556-.672,6.368-2.112,8.449 3.167-1.762 6.161-3.696 7.604-7.182-1.999-.255-2.575-1.931-5.492-1.267zm-141.941,10.983c-.651.936-.876,2.517-1.689,3.802-.663,1.047-1.967,1.935-2.535,2.957-.68,1.226-.661,2.795-1.268,4.225-.51,1.203-1.712,2.273-2.112,3.38-3.139,8.675-4.255,21.512.423,30.416-5.808-19.458 2.208-37.75 12.25-49.426 .426-.005.531-.74 0-.845-1.082,2.025-3.53,3.281-5.069,5.491zm236.991-5.069c-10.449.104-28.506.096-35.908,0-.071.492-.668.459-1.268.423-.323.996-.833,2.919 0,3.802 1.078-.744 1.99-1.66 3.38-2.112 8.638-2.812 23.656,1.224 33.795-.423 1.358.473 2.505,1.156 4.224,1.268 1.688-2.628 7.36-.665 10.139-.422-2.886-4.474-7.884-2.601-14.362-2.536zm19.855.844h4.647c-.536-1.217-4.817-1.749-4.647,0zm53.649-1.266c-2.068.005-4.901.158-6.759,1.267 8.171.332 17.546,2.073 25.77-.422-5.94-.61-12.063-.864-19.011-.845zm-40.554,1.266c1.095-.002 2.98,1.462 3.38-.422-2.542-.703-8.02-.703-10.561,0 1.8,1.064 4.78.428 7.181.422zm8.449.423c1.672-.019 3.793.413 3.802-1.268-1.672.019-3.793-.413-3.802,1.268zm14.786,0c1.33.361 6.413.445 7.181-.845-1.84-.703-6.607-.703-8.448,0 .572.381.454.624 1.267.845zm40.554,1.268c-.101,1.166-1.57.964-2.112,1.689 4.107.877 9.199-1.295 13.519-.423-.226-1.634.754-2.062.423-3.802-7.252-.283-9.277.783-14.363,0-.206,1.895 2.894.485 2.533,2.536zm19.432-2.113c-.577.54-.577,1.994 0,2.534 2.82-1.111 5.917-.81 8.871-.845 1.854-.022 4.3.756 5.492-.845v-.845c-3.692-.726-10.603-.081-14.363.001zm-226.851,1.267c-1.942,4.817-5.647,7.872-8.026,12.251 2.828.722 5.223,3.067 7.182,3.38-.167,1.997.135,3.525.422,5.069 3.32-2.735 5.166-6.944 7.182-10.983-1.12-2.005.24-3.564.845-5.069-1.46-2.626-3.459-4.71-7.605-4.648zm-64.211,10.139c-1.004-.96-3.606-2.464-5.492-3.802-3.321-2.356-5.923-3.755-9.716-4.646-7.55-1.775-16.153-.99-22.812,2.112-4.064,1.894-7.027,3.884-9.716,6.759-1.467,1.568-2.664,4.459-3.802,6.337-.475.783-1.429,1.139-1.689,1.689-2.427,5.138-3.656,12.732-2.957,18.588 2.207,18.488 20.721,33.223 41.399,28.304 11.865-2.823 23.771-15.74 23.234-29.149-1.986-.595-4.438,1.668-3.802,5.069-4.157,4.064-4.796,7.598-8.449,10.984-2.83,2.623-6.737,5.562-10.139,6.759-7.491,2.637-18.058,1.59-23.657-1.689-1.994-1.168-3.5-3.205-4.647-4.225-.87-.773-1.599-.67-2.112-1.268-2.91-3.39-6.054-8.835-6.759-13.94-2.102-15.224 8.182-29.147 21.122-31.684 6.596-1.292 14.908-.065 19.432,2.535 2.986,1.716 5.507,3.894 7.182,5.914 1.434,1.73 2.016,4.652 4.647,5.491 .555-6.211-6.421-8.487-9.716-12.25-7.938-3.513-18.234-5.012-25.769-1.69-2.577,1.136-2.772,1.356-4.647,2.535-3.587,2.255-7.715,5.639-9.716,8.871-.958,1.548-.446,4.441-2.958,4.646 .003-2.348 1.627-4.113 2.958-5.914 1.219-1.651 2.495-3.705 3.802-5.069 10.649-11.114 30.034-11.172 42.244-.845 2.4,2.03 3.43,4.678 5.915,6.337 .08-2.452-1.759-5.21-3.38-6.759zm401.742-7.604v1.268c1.21.083 2.306.053 2.112-1.268-.554-.542-1.556-.542-2.112,0zm-204.462.423c-2-.235-5.367-.552-6.759.422 5.162,1.89 13.346,2.012 18.165,2.957-1.891,3.85-7.31-.663-10.139,2.112-2.959-.292-6.296-.172-8.449,0-2.137.171-4.922-.61-5.914,1.268 12.301-.173 22.812-.672 33.795-2.112 1.531.978 4.416.733 7.182,1.268 2.499.481 5.655,2.655 6.759.422-2.486-.744-4.821.226-5.492-1.689 .399-2.136 4.717-.353 5.069-2.535-12.055,2.32-22.878-.779-34.217-2.113zm57.452.422c1.309,2.954 5.338-.638 6.759,1.268-.036-1.445 2.572-.245 2.535-1.689-4.053-.791-5.578.6-9.294.421zm91.67,1.689c-.329.094-.491.354-.422.846 .089.474.469.657.845.845 2.685-1.781 10.822,1.315 13.519-1.69l-13.942-.001zm39.287.846h-20.699c-.475.089-.657.469-.845.845 .329.093.491.354.422.845 8.974.895 21.705.233 31.261.423 2.933.058 8.266,1.668 8.871-1.268-4.328-1.508-12.294-.845-19.01-.845zm-66.323,2.534h5.069c.813-3.57-5.552-2.373-5.069,0zm-287.261,5.914c-1.625,3.312 1.558,6.486 1.689,10.562 2.482-.844 1.151-5.021.422-8.026-.435-1.793-1.812-3.57-1.689-5.069-2.642-.811-2.594-3.828-4.225-4.647-.346,4.007 3.406,3.917 3.803,7.18zm-79.419,8.871c.024-.257.063-.5.422-.422 2.38.295 3.487,1.863 5.069,2.957 1.106,6.324-3.588,8.39-7.604,7.182-.778.989.44,2.688 0,4.646 1.56.104 2.85-2.134 5.492-.422 1.745-2.762 2.796-6.217 5.069-8.449 2.011-4.376 5.845-9.198 11.406-10.561 8.092-1.984 13.369,1.41 17.742,5.914 .688-3.255 5.283-2.604 8.027-3.803-.629-2.328-2.11-3.805-3.802-5.069-.626,7.521-11.619,4.37-11.828-.845-.08-1.989 1.892-3.483 2.957-5.491-1.368-.604-2.88-1.063-4.647-1.268-.957,6.138-5.489,8.287-12.251,7.604-2.031-1.034-1.461-4.575-1.689-6.336-2.539.699-4.613,1.864-5.915,3.802 9.717,2.28-1.918,15.217-5.914,6.337-1.684.3-2.924,3.255-2.534,4.224zm57.03-4.223c-1.695,1.966-2.432,4.891-4.647,6.336-1.243-1.265-1.598-1.157-3.379-.422-.729-.257.032-2.004-.845-2.112-2.484.194-4.993.384-8.449,1.268-1.09,3.274-5.049,3.681-5.492,7.604 2.155-.605 1.806,1.293 2.957,1.689 1.105-2.273 1.415-5.344 3.802-6.336 3.187,3.618-6.471,9.989.422,12.251 1.588-2.485.129-5.693 2.957-7.182 .738.389.933,1.32.845,2.534 3.396-.157 1.803,4.675 3.802,5.914 .772-1.072 1.588-2.353.845-3.802 1.16-1.726 4.412-3.964 5.914-1.689-.001-2.254 3.419-1.087 3.802-2.957-.201-2.526-4.887-4.423-2.112-7.182 1.585,1.231 1.857,3.775 4.225,4.225 4.558-5.3 10.408-9.306 14.786-14.786-2.53-.986-4.707-.01-6.759-.422-4.625-.931-7.01-5.039-11.406-5.914-.203,3.844-2.666,6.845-1.268,10.983zm244.595-10.562c-1.233,1.161-4.934-.146-5.492,1.689 1.654,1.304 4.846,1.068 7.604,1.268 .465-2.155-1.243-2.136-2.112-2.957zm-90.826,2.113c-1.206.103-3.057-1.376-3.379.845 5.906-.285 9.631-.453 16.897-.422-.558-1.058 1.67-1.323.423-1.69-3.734.516-9.269.871-13.941,1.267zm185.452,5.492c.906.782 3.094.284 4.646.422v-6.337c-.991-.416-2.075-.74-3.379-.845-.879,2.078-.705,3.776-1.267,6.76zm-208.687-1.268c-.196-3.857 6.681-.642 7.604-3.38-1.178-.765-2.855.892-5.069.423-1.015-.394-1.119-1.698-2.957-1.268 .183,1.292-1.122,3.375.422,4.225zm11.829-3.802v1.267c1.611-.078 3.624.244 3.802-1.267-1.725-.134-2.569-.358-3.802,0zm166.864,0c-1.919.169-5.644-.641-5.914,2.112 3.229.93 7.992-.267 11.829-.423 2.52-.103 5.764.19 8.026,0 4.17-.352 9.677,1.603 11.828-1.689-7.495-.731-18.424-.649-25.769,0zm-267.828,2.535c-.286-1.686-2.207-1.735-3.379-2.534 .486,1.484 1.261,2.68 3.379,2.534zm228.119,2.957c-4.054-1.854-8.604-1.143-13.096-1.689-2.271-.276-4.525-1.404-6.759-1.689-1.001-.129-2.046.476-2.958.422-2.866-.168-5.412-2.689-8.026-1.268 8.95,2.457 18.831,6.233 30.839,4.224zm87.446-2.957c-2.184-.028-7.04-1.606-6.336,2.535 2.979,1.496 7.051.845 10.983.845 6.569,0 13.262-.188 18.587-.423 4.651-.204 12.52,2.104 12.251-3.379-9.717-.791-26.289.541-35.485.422zm-313.875,1.689c-1.875.31-5.404,2.351-6.759,2.958-3.492,1.562-8.619,1.307-8.026,5.491 1.188.643 3.338.322 2.535,2.957-7.94,1.526-17.622-.527-22.812,3.802 3.321.691 6.983.614 10.139.423 4.078-.247 8.085-1.242 12.673-1.689 .486-4.865 3.755-6.947 7.182-8.872 .437,3.683-5.613,6.369-5.492,9.717 3.965,2.57 4.925-4.457 8.026-5.492 .126-1.704.624-3.037 2.535-2.957 1.128,1.179-.396,2.087-.423,3.38 5.187.878 6.447-4.089 8.027-8.026-1.757-1.052-4.443-2.213-7.605-1.692zm-15.63,4.647c-.095-.799.476-.933.422-1.689-1.379.111-.896-1.64-2.112-1.69 .121,1.568.477,2.902 1.69,3.379zm-9.294-.844c2.033,1.064.632,5.562 3.379,5.914 1.79-1.879-.767-4.969-.845-7.604-1.59-.183-1.923.892-2.534,1.69zm323.169,0c-5.269-.223-10.867-1.105-16.053-.845-.601.029-.719.728-1.268.845-3.419.726-8.235.017-12.674,0-29.274-.112-45.654.663-70.548,0-3.983-.106-7.933.349-11.828.422-16.839.317-34.507-1.185-51.116-.845-16.49.338-32.338.788-47.736.845 .812,2.709 1.877,5.163 3.379,7.182 36.773.805 71.94.452 103.499,0 3.573-.051 7.102-.878 10.562-.845 1.788.018 3.582.756 5.491.845 11.346.527 25.556-1.608 39.71-.422 1.429.119 2.352.854 2.534.845-.221.012.736-1.227.845-1.268 .672-.252 1.962.056 2.535,0 7.456-.723 15.458,0 23.234,0 15.604,0 31.346-.72 46.469,0 7.951.379 15.328,1.149 21.545-.423 .152-1.834 1.033-4.664.422-5.914-16.482-1.154-32.337.28-49.002-.422zm-367.103,2.112c-1.089-.631-3.649-1.524-5.069-1.69-9.82-1.147-17.002,7.013-16.475,15.208 .757,11.779 14.699,16.188 23.234,8.871 1.594-1.366 3.42-4.034 3.379-5.491-.056-2.028-1.079-.963-1.267-3.38-2.729.336-3.419-1.369-3.802-3.379-.577-1.845 1.636-.899 1.268-2.535-2.793-.868-4.034-3.289-6.759-4.225-5.798.633-10.098,1.399-11.406,6.337-1.154,4.353.751,8.321 3.802,9.716 .553.253 1.76-.235 2.957,0 3.03.596 5.504.56 8.449-.845 1.767-.842 2.937-2.776 4.647-2.534-.543,5.009-7.682,7.062-12.25,6.759-.448-.029-1.033-.731-1.69-.845-1.105-.19-2.352.194-2.957,0-3.169-1.019-5.885-6.175-5.915-9.294-.032-3.348 2.625-8.89 6.337-10.562 1.411-.635 6.584-1.751 7.604-1.689 3.964.24 6.017,3.644 9.716,5.069-.312-2.983-2-4.448-3.803-5.491zm44.779,2.957c-1.16-.529-1.095-2.285-1.267-3.803-4.319-.593-.582,8.154 1.267,3.803zm20.277,4.224c-1.6,2.595-2.088,5.245-5.069,5.492-1.784.147-2.972-2.315-5.492-1.689-.205,1.612.12,2.696.845,3.379 2.765-.271 3.037-.318 4.225,1.268 .418-2.82 4.154-2.323 6.336-3.38 .452-1.578-1.049-1.204-.845-2.534 2.041-2.315 8.229-2.878 10.561-1.268 .51-2.447 2.647-3.267 2.535-6.337-.603-.101-.712-.695-1.267-.845-1.648,4.266-6.037,5.793-11.829,5.914zm-27.881-2.534c1.453.185 2.368-.167 3.38-.423 .241-3.967-2.773-.796-3.38.423zm224.739,3.379c.436,1.977 4.593,1.533 5.492,0-1.483-1.07-3.744.003-5.492,0zm-37.174,2.535c-6.923-.043-13.894,1.534-18.588.423-2.299-.545-3.413-3.299-5.914-2.957-.101.603-.696.712-.845,1.267 1.308,6.149.264,11.883.845,17.32 19.502,1.482 46.024.737 66.323,0-.3-5.51.444-9.977.423-15.208-12.257-.645-27.079-.75-42.244-.845zm184.607-.845c.137,2.706-.957,4.523.422,6.337 1.801-.171 4.353.409 5.492-.423-.374-2.161.157-3.471 0-6.337-1.838-1.391-3.869-.177-5.914.423zm-43.512,0c-2.611,1.234-3.555,4.4-5.914,5.491-5.353,2.476-17.634.953-26.191.846-18.346-.231-42.81-.564-61.255,0-1.559.77-2.908-1.925-2.957,0-.626,1.727-.329,3.565 0,5.491 10.818-.101 23.893.777 36.33.423 1.328-.504 1.684-1.979 3.38-2.112 6.769.003 16.161.82 24.924.422 10.47-.476 21.573.123 30.839-1.267 1.571-2.253 4.104-6.932.844-9.294zm-204.885,5.069c2.06,2.023 3.208,4.959 5.492,6.759 10.444-.125 24.01.323 31.261-.422-.06-2.053-.306-3.919-1.267-5.069-8-.686-23.682-.669-31.684,0-1.301-.671-.715-3.228-2.957-2.957-.005.839-1.152.537-.845,1.689zm214.601,0c-3.837,4.049-7.002,8.769-13.94,9.716 .156,1.675-.387,4.049.423,5.069 18.775.401 36.824.253 54.917.423 .112-1.7.471-6.437-2.112-6.759-1.719-.271-6.926,1.276-9.716,0-1.498-1.46-.929-4.985-1.689-7.182-8.806-1.639-18.281-1.214-27.883-1.267zm-363.3,5.07c1.042.056 2.035.063 2.535-.423-.145-1.545-.044-3.336-1.69-3.379 .47,2.019-1.316,1.782-.845,3.802zm41.399,0c-.664,1.44-.731,2.22-.422,3.802 5.223-2.476 14.417-.687 17.32-6.337-.089-.474-.469-.657-.845-.845-4.24,2.466-10.971,2.929-16.053,3.38zm60.832,19.854c-.983,2.486-1.114,5.301-2.112,8.026-.625,1.706-2.356,3.12-2.112,5.069 10.083-2.027 19.997-4.223 26.614-9.716-3.938-7.327-7.077-15.453-10.139-23.657h-1.268c-2.45,7.524-8.324,13.554-10.983,20.278zm-108.991-19.854c-1.627,5.554-8.209,6.153-11.406,10.139 3.303.502 6.259,3.118 4.647,7.182 2.384-.151 4.571-.498 5.069-2.535-1.428-1.456-3.15-2.427-3.38-4.225-.9-7.033 10.852-9.744 12.673-2.112 1.268-1.267 2.459-2.609 2.535-5.068-4.992.485-6.179-2.834-10.138-3.381zm350.206,10.138c1.684.135 3.121.023 3.802-.845 1.26-5.973-6.163-3.225-3.802.845zm-381.889,0c1.291-1.586 1.22-2.55 0-4.225-1.548-.312-2.347,1.039-3.379,0 .376,2.16 1.508,3.561 3.379,4.225zm370.905-2.957c-9.309-.543-26.702.793-33.373-.845-.329.093-.491.354-.423.845 2.217.538 5.576,3.325 8.449,3.802 2.582.429 7.304-.423 11.406-.423 4.455,0 9.275.217 12.673,0 2.406-.152 5.095.042 5.914-2.112-.723-1.362-3.07-1.175-4.646-1.267zm-396.251,5.07c-.157-1.814-.683-3.26-1.689-4.225 .156,1.814.682,3.26 1.689,4.225zm32.95,3.801c1.56.975 3.7,1.37 5.914,1.689 .646-1.219 1.328-4.062.845-5.069-3.247.229-6.108-.147-6.759,3.38zm324.436-2.112c-37.307.435-76.854-.59-114.481,0-.987.016-6.301-.415-7.604,1.268 7.015,1.236 13.947.187 21.122.422 6.479.213 13.242.423 20.277.423h109.413c7.586,0 15.088-1.127 22.812-1.268 15.042-.273 33.052.509 49.004.423 2.05-.012 4.937.702 6.759-.845-39.036-.878-73.42-.818-107.302-.423zm-249.663,0c-1.631-.036-3.574.337-5.069,0-.749.659-2.251.565-1.69,2.535 2.122.28 3.628-.432 5.492-.423 1.853.009 5.418,1.729 7.182-.845-1.059-1.425-3.756-1.219-5.915-1.267zm117.016,1.268c1.646.816 3.974,1.02 5.914.845 1.017-.092 3.042-.047 3.802-1.268-1.926-1.284-8.331-1.454-9.716.423zm241.215,13.095c-2.185-1.376-3.337-3.658-5.492-4.225-3.275-.861-8.506,0-13.096,0-13.225,0-29.022-.01-39.287.423-8.695.366-17.48-.118-26.191,0-48.432.655-94.124-1.016-147.855.845 .283,2.956 2.633,3.845 2.957,6.759 81.332.74 154.006-.013 234.456,0-.528-2.769-3.441-2.511-5.492-3.802zm-369.637-3.38c-1.43,2.653-3.536,4.632-5.069,7.182 4.015.312 8.598.596 12.251.423 1.416-2.669 3.241-4.927 4.647-7.604-3.682-.638-6.982.034-11.829-.001zm115.327,62.1c9.484,1.314 22.649,6.342 32.105,2.112 3.114-1.394 8.681-3.344 6.759-7.604-2.742-.051-4.162,1.577-6.337,2.112-10.238,2.52-22.132-2.028-32.105-2.535 1.098,2.465-.488,3.382-.422,5.915zm11.828,4.646c-1.938.39-2.041-1.057-3.802-.845-.505,1.797 3.199,1.556 3.802.845zm13.518,1.69c-.86-.244-3.329.288-1.267.423 2.454-.396 8.686,1.677 8.871-2.112-2.546.55-4.92,1.275-7.604,1.689zm-95.049,2.535c1.166.665 2.482,1.179 3.802,1.689 .678-1.227-.779-1.096 0-2.957-1.15-.84-3.914-.473-3.802,1.268zm-4.647,0c-.102,1.847 2.38,2.698 3.379,2.112 .466-2.211-2.167-2.911-3.379-2.112zm17.32,2.957c1.568-.263 4.348.687 4.647-.845-1.846-.014-3.817-.156-4.647.845z" fill-rule="evenodd"/>
 <path d="m550.866,364.99c17.111-2.216 31.262,11.028 30.838,27.036-.468,17.693-18.107,31.167-35.485,26.191-7.467-2.138-14.537-7.478-17.742-15.208-6.626-15.975 3.107-35.523 22.389-38.019zm-20.278,16.898c1.562-.98 4.061.714 4.646,2.112-.471,1.219-.76,2.619-.845,4.225 3.919-2.455 4.468-6.812 8.449-9.716 7.186-5.242 17.409-5.256 23.234,2.112 3.437,4.348 5.025,11.38 2.534,16.897-1.125,2.493-1.867,3.806-2.957,5.914-.894,1.729-2.693,2.847-2.957,5.069-.956.593-1.389,1.71-2.534,2.112 .47,2.064 2.98,2.088 2.534,5.069 1.734-.378 3.146-1.078 4.225-2.112-8.656-4.107 5.39-16.003 8.026-6.337 .466-1.928 2.653-2.134 2.534-4.646-9.966.48-5.935-12.888 2.535-10.562-.345-1.907.814-5.32-.845-5.914-.41,2.618-4.034,3.259-5.492,2.957-5.123-1.06-5.566-12.082 2.535-10.561-.516-2.583-2.443-3.753-3.803-5.492-1.146,6.684-11.866,4.567-11.828-.422 .017-2.09 1.417-2.689 2.535-5.069-1.178-.936-3.337-.889-5.069-1.268 .255,6.052-5.582,7.224-10.562,6.759-1.435-1.734-1.962-3.359-2.112-5.491-1.907.063-2.465,1.478-4.225,1.689 1.05,1.804 2.354,1.928 2.535,3.802 .451,4.671-6.127,8.83-9.717,4.225-.326-1.079 1.653-1.942.423-2.534-1.47,1.912-3.877,5.126-3.799,7.182zm8.45,13.518c.979,4.59 3.048,4.799 6.336,7.182 1.696,1.229 2.525,2.938 4.225,3.379 1.087.282 6.447.146 7.182,0 5.612-1.109 11.295-7.916 11.828-13.096 1.035-10.044-8.862-17.784-17.742-16.053-7.864,1.535-13.692,9.871-11.829,18.588zm-10.985-.844c3.415.599 4.662-.972 5.069-3.38-1.745.485-3.323.485-5.069,0-.838.831-.268,2.413 0,3.38zm19.856,19.854c-.338.789-.706,1.547-.846,2.535 2.155,1.359 6.598-.211 4.647-2.957-1.39.018-2.103.713-3.801.422z" fill-rule="evenodd"/>
</svg>
